<?xml version="1.0" encoding="UTF-8"?>
<!-- Generator: Adobe Illustrator 15.0.2, SVG Export Plug-In  -->
<!DOCTYPE svg PUBLIC "-//W3C//DTD SVG 1.1//EN" "http://www.w3.org/Graphics/SVG/1.1/DTD/svg11.dtd" [
	<!ENTITY ns_flows "http://ns.adobe.com/Flows/1.0/">
]>
<svg version="1.1" xmlns="http://www.w3.org/2000/svg" xmlns:xlink="http://www.w3.org/1999/xlink" xmlns:a="http://ns.adobe.com/AdobeSVGViewerExtensions/3.0/" x="0px" y="0px" width="524px" height="659px" viewBox="0 0 524 659" enable-background="new 0 0 524 659" xml:space="preserve">
<defs>
</defs>
<linearGradient id="SVGID_3_" gradientUnits="userSpaceOnUse" x1="37.7886" y1="515.3037" x2="92.6829" y2="536.3757">
	<stop offset="0" style="stop-color:#8B5E3C"/>
	<stop offset="0.497" style="stop-color:#FDC060"/>
</linearGradient>
<path display="none" fill="url(#SVGID_3_)" stroke="#000000" stroke-width="3" stroke-miterlimit="10" d="M109.092,493.628l-72,70  c0,0-13.53,0.171-11-15s23-55,23-55s1-8,21-9S109.092,493.628,109.092,493.628z"/>
<linearGradient id="SVGID_4_" gradientUnits="userSpaceOnUse" x1="430.9292" y1="536.376" x2="485.8235" y2="515.304">
	<stop offset="0.503" style="stop-color:#FDC060"/>
	<stop offset="1" style="stop-color:#8B5E3C"/>
</linearGradient>
<path display="none" fill="url(#SVGID_4_)" stroke="#000000" stroke-width="3" stroke-miterlimit="10" d="M414.52,493.628l72,70  c0,0,13.529,0.171,11-15s-23-55-23-55s-1-8-21-9S414.52,493.628,414.52,493.628z"/>
<linearGradient id="SVGID_5_" gradientUnits="userSpaceOnUse" x1="1.5" y1="461.1279" x2="107.0923" y2="461.1279">
	<stop offset="0" style="stop-color:#BCBEC0"/>
	<stop offset="0.3333" style="stop-color:#E6E7E8"/>
</linearGradient>
<path display="none" fill="url(#SVGID_5_)" stroke="#000000" stroke-width="3" stroke-miterlimit="10" d="M2.092,456.628  c0-18,7.316-28,35-28s51,8,51,8l19,57c0,0-71.883-16.141-90.941-9.07S2.092,456.628,2.092,456.628z"/>
<linearGradient id="SVGID_6_" gradientUnits="userSpaceOnUse" x1="416.52" y1="461.1279" x2="522.1118" y2="461.1279">
	<stop offset="0.6316" style="stop-color:#E6E7E8"/>
	<stop offset="0.6867" style="stop-color:#DBDCDD"/>
	<stop offset="0.7932" style="stop-color:#CACBCD"/>
	<stop offset="0.8984" style="stop-color:#BFC1C3"/>
	<stop offset="1" style="stop-color:#BCBEC0"/>
</linearGradient>
<path display="none" fill="url(#SVGID_6_)" stroke="#000000" stroke-width="3" stroke-miterlimit="10" d="M521.52,456.628  c0-18-7.316-28-35-28s-51,8-51,8l-19,57c0,0,71.883-16.141,90.941-9.07S521.52,456.628,521.52,456.628z"/>
<path display="none" fill="#FBB040" stroke="#000000" stroke-width="3" stroke-miterlimit="10" d="M2.092,456.628c0,0,8,6,23,6  c9.731,10.067,11,32,11,58.345c-25-1.345-34-19.345-34-48.345S2.092,456.628,2.092,456.628z"/>
<path display="none" fill="#FBB040" stroke="#000000" stroke-width="3" stroke-miterlimit="10" d="M521.52,456.628c0,0-8,6-23,6  c-9.731,10.067-11,32-11,58.345c25-1.345,34-19.345,34-48.345S521.52,456.628,521.52,456.628z"/>
<g>
	<defs>
		<path id="SVGID_2_" d="M261.113,3.5H10.092c0,0,0,138.937,0,258.714c0,161.081,140,299,251.714,341    c118.286-39,251.714-175.92,251.714-337c0-119.778,0-262.714,0-262.714H261.113z"/>
	</defs>
	<radialGradient id="SVGID_7_" cx="261.8062" cy="303.3569" r="276.8339" gradientUnits="userSpaceOnUse">
		<stop offset="0" style="stop-color:#F7E234"/>
		<stop offset="1" style="stop-color:#FBB040"/>
	</radialGradient>
	<use xlink:href="#SVGID_2_" overflow="visible" fill="url(#SVGID_7_)"/>
	<clipPath id="SVGID_8_">
		<use xlink:href="#SVGID_2_" overflow="visible"/>
	</clipPath>
	<g clip-path="url(#SVGID_8_)">
		<g>
			<path fill="#D52229" d="M496.081,272.104h-219.26h-15.015v15.014v0V506.38c0,0,10.646-6.549,11.862-32.594     c0.938,18.735,27.717,27.156,35.19,7.852c-22.295-8.148-31.765-36.132-31.765-85.88c0-10.452-0.239-108.605-0.239-108.605     s98.152,0.24,108.604,0.24c49.748,0,77.731,9.47,85.88,31.765c19.305-7.474,10.884-34.253-7.852-35.192     C489.533,282.751,496.081,272.104,496.081,272.104z"/>
			<path fill="#E93F32" d="M27.531,272.104h219.261h15.014v15.014v0V506.38c0,0-10.646-6.549-11.862-32.594     c-0.938,18.735-27.718,27.156-35.191,7.852c22.295-8.148,31.765-36.132,31.765-85.88c0-10.452,0.24-108.605,0.24-108.605     s-98.153,0.24-108.605,0.24c-49.749,0-77.731,9.47-85.879,31.765c-19.306-7.474-10.884-34.253,7.851-35.192     C34.079,282.751,27.531,272.104,27.531,272.104z"/>
		</g>
		<g>
			<path fill="#E93F32" d="M496.081,272.104h-219.26h-15.015v-15.013v-0.001V37.83c0,0,10.646,6.547,11.862,32.594     c0.938-18.735,27.717-27.157,35.19-7.851c-22.295,8.147-31.765,36.13-31.765,85.879c0,10.452-0.239,108.605-0.239,108.605     s98.152-0.24,108.604-0.24c49.748,0,77.731-9.47,85.88-31.765c19.305,7.474,10.884,34.253-7.852,35.192     C489.533,261.458,496.081,272.104,496.081,272.104z"/>
			<path fill="#F04B4C" d="M27.531,272.104h219.261h15.014v-15.013v-0.001V37.83c0,0-10.646,6.547-11.862,32.594     c-0.938-18.735-27.718-27.157-35.191-7.851c22.295,8.147,31.765,36.13,31.765,85.879c0,10.452,0.24,108.605,0.24,108.605     s-98.153-0.24-108.605-0.24c-49.749,0-77.731-9.47-85.879-31.765c-19.306,7.474-10.884,34.253,7.851,35.192     C34.079,261.458,27.531,272.104,27.531,272.104z"/>
		</g>
	</g>
	<g clip-path="url(#SVGID_8_)">
		<g>
			<g>
				
					<line fill="none" stroke="#BE1E2D" stroke-width="4" stroke-linecap="round" stroke-linejoin="round" stroke-miterlimit="10" x1="386.634" y1="203.922" x2="378.239" y2="230.307"/>
				
					<polyline fill="none" stroke="#BE1E2D" stroke-width="4" stroke-linecap="round" stroke-linejoin="round" stroke-miterlimit="10" points="      350.956,233.004 394.429,225.809 348.858,241.1     "/>
				
					<line fill="none" stroke="#BE1E2D" stroke-width="4" stroke-linecap="round" stroke-linejoin="round" stroke-miterlimit="10" x1="375.54" y1="200.025" x2="366.247" y2="227.308"/>
				
					<polyline fill="none" stroke="#BE1E2D" stroke-width="4" stroke-linecap="round" stroke-linejoin="round" stroke-miterlimit="10" points="      340.461,236.302 375.54,224.31 340.461,228.807     "/>
			</g>
			<g>
				<path d="M328.771,109.781c15.59-0.3,21.286,20.688,20.986,26.384c-0.301,5.697,18.717,13.751,29.446,21.716      c10.729,7.966,22.422,23.257,42.809,32.551s22.486,21.585,26.084,22.786c3.598,1.199-29.082-11.393-38.077-10.194      c-8.994,1.199-6.854,6.896-37.734,4.197c-30.882-2.698-44.114-23.085-46.813-32.979c-2.698-9.894-0.6-32.081-2.998-36.577      c-2.398-4.498,3.897-14.391-25.784-13.792c3.486-3.328,13.884-4.469,21.09-6.699      C320.975,111.58,328.771,109.781,328.771,109.781z"/>
				<path fill="#1C1B1C" d="M382.436,202.124c-8.095,0.6-26.383-8.395-35.377-11.993c-6.365-2.546-16.974-15.146-22.635-22.299      c0.229,2.42,0.56,4.618,1.048,6.409c2.698,9.894,15.931,30.281,46.813,32.979c30.881,2.698,28.74-2.998,37.734-4.197      C404.419,202.699,390.531,201.523,382.436,202.124z"/>
				<path fill="none" stroke="#58595B" stroke-width="2" stroke-miterlimit="10" d="M328.771,109.781      c15.59-0.3,21.286,20.688,20.986,26.384c-0.301,5.697,18.717,13.751,29.446,21.716c10.729,7.966,22.422,23.257,42.809,32.551      s22.486,21.585,26.084,22.786c3.598,1.199-29.082-11.393-38.077-10.194c-8.994,1.199-6.854,6.896-37.734,4.197      c-30.882-2.698-44.114-23.085-46.813-32.979c-2.698-9.894-0.6-32.081-2.998-36.577c-2.398-4.498,3.897-14.391-25.784-13.792      c3.486-3.328,13.884-4.469,21.09-6.699C320.975,111.58,328.771,109.781,328.771,109.781z"/>
			</g>
			<g>
				<path fill="#BE1E2D" d="M296.69,123.873c14.992-0.303,20.804,2.072,23.195,5.076c2.068-2.49-0.979-9.419-2.111-11.773      C310.568,119.404,300.175,120.546,296.69,123.873z"/>
				<path fill="#BE1E2D" stroke="#ED1C24" stroke-width="2" stroke-miterlimit="10" d="M317.774,117.175      c-7.206,2.229-17.599,3.371-21.084,6.697c14.992-0.303,20.804,2.072,23.195,5.076"/>
			</g>
			<ellipse fill="#FFFFFF" cx="326.971" cy="118.575" rx="2.099" ry="1.4"/>
			<g>
				<path fill="#1C1B1C" d="M353.057,155.951c-6.896,7.195,4.495,17.091,20.085,25.186s75.229,19.788,75.229,19.788      s-56.641-39.316-65.335-43.044C374.341,154.154,359.953,148.755,353.057,155.951z"/>
				<path d="M383.037,157.88c-8.695-3.727-23.084-9.125-29.979-1.93c-6.13,6.396,2.194,14.926,15.07,22.428      c2.663-2.026,10.142-8.429,7.412-14.631c-3.297-7.495,37.505,11.274,44.074,21.886l-19.928-6.296l21.727,10.493l-21.727-5.247      l26.497,11.662c12.544,2.787,22.188,4.678,22.188,4.678S391.731,161.608,383.037,157.88z"/>
				<path fill="none" stroke="#333334" stroke-miterlimit="10" d="M353.057,155.951c-6.896,7.195,4.495,17.091,20.085,25.186      s75.229,19.788,75.229,19.788s-56.641-39.316-65.335-43.044c-4.643-1.99-10.908-4.456-16.789-5.228"/>
				
					<ellipse transform="matrix(0.8533 0.5214 -0.5214 0.8533 138.4301 -165.5061)" fill="#414042" cx="363.392" cy="163.298" rx="8.239" ry="5.546"/>
			</g>
		</g>
		<g>
			<g>
				
					<line fill="none" stroke="#BE1E2D" stroke-width="4" stroke-linecap="round" stroke-linejoin="round" stroke-miterlimit="10" x1="170.768" y1="203.922" x2="162.374" y2="230.307"/>
				
					<polyline fill="none" stroke="#BE1E2D" stroke-width="4" stroke-linecap="round" stroke-linejoin="round" stroke-miterlimit="10" points="      135.09,233.004 178.563,225.809 132.992,241.1     "/>
				
					<line fill="none" stroke="#BE1E2D" stroke-width="4" stroke-linecap="round" stroke-linejoin="round" stroke-miterlimit="10" x1="159.674" y1="200.025" x2="150.381" y2="227.308"/>
				
					<polyline fill="none" stroke="#BE1E2D" stroke-width="4" stroke-linecap="round" stroke-linejoin="round" stroke-miterlimit="10" points="      124.597,236.302 159.674,224.31 124.597,228.807     "/>
			</g>
			<g>
				<path d="M112.905,109.781c15.59-0.3,21.287,20.688,20.986,26.384c-0.3,5.697,18.718,13.751,29.446,21.716      c10.729,7.966,22.423,23.257,42.81,32.551s22.486,21.585,26.084,22.786c3.598,1.199-29.083-11.393-38.077-10.194      c-8.994,1.199-6.854,6.896-37.735,4.197c-30.881-2.698-44.113-23.085-46.812-32.979c-2.698-9.894-0.6-32.081-2.998-36.577      c-2.398-4.498,3.897-14.391-25.784-13.792c3.486-3.328,13.883-4.469,21.09-6.699C105.11,111.58,112.905,109.781,112.905,109.781      z"/>
				<path fill="#1C1B1C" d="M166.571,202.124c-8.095,0.6-26.383-8.395-35.377-11.993c-6.366-2.546-16.974-15.146-22.635-22.299      c0.229,2.42,0.56,4.618,1.048,6.409c2.698,9.894,15.931,30.281,46.812,32.979c30.882,2.698,28.741-2.998,37.735-4.197      C188.554,202.699,174.666,201.523,166.571,202.124z"/>
				<path fill="none" stroke="#58595B" stroke-width="2" stroke-miterlimit="10" d="M112.905,109.781      c15.59-0.3,21.287,20.688,20.986,26.384c-0.3,5.697,18.718,13.751,29.446,21.716c10.729,7.966,22.423,23.257,42.81,32.551      s22.486,21.585,26.084,22.786c3.598,1.199-29.083-11.393-38.077-10.194c-8.994,1.199-6.854,6.896-37.735,4.197      c-30.881-2.698-44.113-23.085-46.812-32.979c-2.698-9.894-0.6-32.081-2.998-36.577c-2.398-4.498,3.897-14.391-25.784-13.792      c3.486-3.328,13.883-4.469,21.09-6.699C105.11,111.58,112.905,109.781,112.905,109.781z"/>
			</g>
			<g>
				<path fill="#BE1E2D" d="M80.825,123.873c14.992-0.303,20.804,2.072,23.194,5.076c2.069-2.49-0.978-9.419-2.11-11.773      C94.703,119.404,84.31,120.546,80.825,123.873z"/>
				<path fill="#BE1E2D" stroke="#ED1C24" stroke-width="2" stroke-miterlimit="10" d="M101.909,117.175      c-7.206,2.229-17.599,3.371-21.084,6.697c14.992-0.303,20.804,2.072,23.194,5.076"/>
			</g>
			<ellipse fill="#FFFFFF" cx="111.105" cy="118.575" rx="2.099" ry="1.4"/>
			<g>
				<path fill="#1C1B1C" d="M137.192,155.951c-6.896,7.195,4.495,17.091,20.085,25.186s75.229,19.788,75.229,19.788      s-56.641-39.316-65.336-43.044C158.476,154.154,144.087,148.755,137.192,155.951z"/>
				<path d="M167.17,157.88c-8.694-3.727-23.083-9.125-29.979-1.93c-6.13,6.396,2.194,14.926,15.07,22.428      c2.663-2.026,10.141-8.429,7.412-14.631c-3.297-7.495,37.505,11.274,44.074,21.886l-19.928-6.296l21.727,10.493l-21.727-5.247      l26.496,11.662c12.545,2.787,22.189,4.678,22.189,4.678S175.866,161.608,167.17,157.88z"/>
				<path fill="none" stroke="#333334" stroke-miterlimit="10" d="M137.192,155.951c-6.896,7.195,4.495,17.091,20.085,25.186      s75.229,19.788,75.229,19.788s-56.641-39.316-65.336-43.044c-4.642-1.99-10.907-4.456-16.788-5.228"/>
				
					<ellipse transform="matrix(0.8534 0.5213 -0.5213 0.8534 106.765 -52.9629)" fill="#414042" cx="147.526" cy="163.298" rx="8.239" ry="5.546"/>
			</g>
		</g>
		<g>
			<g>
				
					<line fill="none" stroke="#BE1E2D" stroke-width="4" stroke-linecap="round" stroke-linejoin="round" stroke-miterlimit="10" x1="386.634" y1="419.788" x2="378.239" y2="446.171"/>
				
					<polyline fill="none" stroke="#BE1E2D" stroke-width="4" stroke-linecap="round" stroke-linejoin="round" stroke-miterlimit="10" points="      350.956,448.869 394.429,441.674 348.858,456.965     "/>
				
					<line fill="none" stroke="#BE1E2D" stroke-width="4" stroke-linecap="round" stroke-linejoin="round" stroke-miterlimit="10" x1="375.54" y1="415.89" x2="366.247" y2="443.174"/>
				
					<polyline fill="none" stroke="#BE1E2D" stroke-width="4" stroke-linecap="round" stroke-linejoin="round" stroke-miterlimit="10" points="      340.461,452.168 375.54,440.175 340.461,444.672     "/>
			</g>
			<g>
				<path d="M328.771,325.646c15.59-0.3,21.286,20.687,20.986,26.384c-0.301,5.697,18.717,13.751,29.446,21.716      c10.729,7.965,22.422,23.256,42.809,32.551c20.387,9.292,22.486,21.585,26.084,22.784c3.598,1.2-29.082-11.393-38.077-10.191      c-8.994,1.197-6.854,6.895-37.734,4.196c-30.882-2.698-44.114-23.086-46.813-32.979s-0.6-32.081-2.998-36.578      s3.897-14.39-25.784-13.791c3.486-3.328,13.884-4.469,21.09-6.699C320.975,327.445,328.771,325.646,328.771,325.646z"/>
				<path fill="#1C1B1C" d="M382.436,417.989c-8.095,0.6-26.383-8.396-35.377-11.993c-6.365-2.547-16.974-15.146-22.635-22.3      c0.229,2.421,0.56,4.618,1.048,6.41c2.698,9.894,15.931,30.281,46.813,32.979c30.881,2.698,28.74-2.999,37.734-4.196      C404.419,418.564,390.531,417.389,382.436,417.989z"/>
				<path fill="none" stroke="#58595B" stroke-width="2" stroke-miterlimit="10" d="M328.771,325.646      c15.59-0.3,21.286,20.687,20.986,26.384c-0.301,5.697,18.717,13.751,29.446,21.716c10.729,7.965,22.422,23.256,42.809,32.551      c20.387,9.292,22.486,21.585,26.084,22.784c3.598,1.2-29.082-11.393-38.077-10.191c-8.994,1.197-6.854,6.895-37.734,4.196      c-30.882-2.698-44.114-23.086-46.813-32.979s-0.6-32.081-2.998-36.578s3.897-14.39-25.784-13.791      c3.486-3.328,13.884-4.469,21.09-6.699C320.975,327.445,328.771,325.646,328.771,325.646z"/>
			</g>
			<g>
				<path fill="#BE1E2D" d="M296.69,339.738c14.992-0.303,20.804,2.072,23.195,5.076c2.068-2.491-0.979-9.419-2.111-11.773      C310.568,335.269,300.175,336.411,296.69,339.738z"/>
				<path fill="#BE1E2D" stroke="#ED1C24" stroke-width="2" stroke-miterlimit="10" d="M317.774,333.041      c-7.206,2.229-17.599,3.371-21.084,6.697c14.992-0.303,20.804,2.072,23.195,5.076"/>
			</g>
			<ellipse fill="#FFFFFF" cx="326.971" cy="334.44" rx="2.099" ry="1.399"/>
			<g>
				<path fill="#1C1B1C" d="M353.057,371.816c-6.896,7.195,4.495,17.091,20.085,25.186s75.229,19.787,75.229,19.787      s-56.641-39.315-65.335-43.043C374.341,370.019,359.953,364.62,353.057,371.816z"/>
				<path d="M383.037,373.746c-8.695-3.728-23.084-9.126-29.979-1.93c-6.13,6.396,2.194,14.926,15.07,22.428      c2.663-2.027,10.142-8.43,7.412-14.632c-3.297-7.495,37.505,11.274,44.074,21.886l-19.928-6.295l21.727,10.493l-21.727-5.247      l26.497,11.662c12.544,2.787,22.188,4.678,22.188,4.678S391.731,377.474,383.037,373.746z"/>
				<path fill="none" stroke="#333334" stroke-miterlimit="10" d="M353.057,371.816c-6.896,7.195,4.495,17.091,20.085,25.186      s75.229,19.787,75.229,19.787s-56.641-39.315-65.335-43.043c-4.643-1.99-10.908-4.457-16.789-5.228"/>
				
					<ellipse transform="matrix(0.8533 0.5214 -0.5214 0.8533 250.9849 -133.8505)" fill="#414042" cx="363.392" cy="379.164" rx="8.239" ry="5.546"/>
			</g>
		</g>
		<g>
			<g>
				
					<line fill="none" stroke="#BE1E2D" stroke-width="4" stroke-linecap="round" stroke-linejoin="round" stroke-miterlimit="10" x1="170.768" y1="419.788" x2="162.374" y2="446.171"/>
				
					<polyline fill="none" stroke="#BE1E2D" stroke-width="4" stroke-linecap="round" stroke-linejoin="round" stroke-miterlimit="10" points="      135.09,448.869 178.563,441.674 132.992,456.965     "/>
				
					<line fill="none" stroke="#BE1E2D" stroke-width="4" stroke-linecap="round" stroke-linejoin="round" stroke-miterlimit="10" x1="159.674" y1="415.89" x2="150.381" y2="443.174"/>
				
					<polyline fill="none" stroke="#BE1E2D" stroke-width="4" stroke-linecap="round" stroke-linejoin="round" stroke-miterlimit="10" points="      124.597,452.168 159.674,440.175 124.597,444.672     "/>
			</g>
			<g>
				<path d="M112.905,325.646c15.59-0.3,21.287,20.687,20.986,26.384c-0.3,5.697,18.718,13.751,29.446,21.716      c10.729,7.965,22.423,23.256,42.81,32.551c20.387,9.292,22.486,21.585,26.084,22.784c3.598,1.2-29.083-11.393-38.077-10.191      c-8.994,1.197-6.854,6.895-37.735,4.196c-30.881-2.698-44.113-23.086-46.812-32.979s-0.6-32.081-2.998-36.578      s3.897-14.39-25.784-13.791c3.486-3.328,13.883-4.469,21.09-6.699C105.11,327.445,112.905,325.646,112.905,325.646z"/>
				<path fill="#1C1B1C" d="M166.571,417.989c-8.095,0.6-26.383-8.396-35.377-11.993c-6.366-2.547-16.974-15.146-22.635-22.3      c0.229,2.421,0.56,4.618,1.048,6.41c2.698,9.894,15.931,30.281,46.812,32.979c30.882,2.698,28.741-2.999,37.735-4.196      C188.554,418.564,174.666,417.389,166.571,417.989z"/>
				<path fill="none" stroke="#58595B" stroke-width="2" stroke-miterlimit="10" d="M112.905,325.646      c15.59-0.3,21.287,20.687,20.986,26.384c-0.3,5.697,18.718,13.751,29.446,21.716c10.729,7.965,22.423,23.256,42.81,32.551      c20.387,9.292,22.486,21.585,26.084,22.784c3.598,1.2-29.083-11.393-38.077-10.191c-8.994,1.197-6.854,6.895-37.735,4.196      c-30.881-2.698-44.113-23.086-46.812-32.979s-0.6-32.081-2.998-36.578s3.897-14.39-25.784-13.791      c3.486-3.328,13.883-4.469,21.09-6.699C105.11,327.445,112.905,325.646,112.905,325.646z"/>
			</g>
			<g>
				<path fill="#BE1E2D" d="M80.825,339.738c14.992-0.303,20.804,2.072,23.194,5.076c2.069-2.491-0.978-9.419-2.11-11.773      C94.703,335.269,84.31,336.411,80.825,339.738z"/>
				<path fill="#BE1E2D" stroke="#ED1C24" stroke-width="2" stroke-miterlimit="10" d="M101.909,333.041      c-7.206,2.229-17.599,3.371-21.084,6.697c14.992-0.303,20.804,2.072,23.194,5.076"/>
			</g>
			<ellipse fill="#FFFFFF" cx="111.105" cy="334.44" rx="2.099" ry="1.399"/>
			<g>
				<path fill="#1C1B1C" d="M137.192,371.816c-6.896,7.195,4.495,17.091,20.085,25.186s75.229,19.787,75.229,19.787      s-56.641-39.315-65.336-43.043C158.476,370.019,144.087,364.62,137.192,371.816z"/>
				<path d="M167.17,373.746c-8.694-3.728-23.083-9.126-29.979-1.93c-6.13,6.396,2.194,14.926,15.07,22.428      c2.663-2.027,10.141-8.43,7.412-14.632c-3.297-7.495,37.505,11.274,44.074,21.886l-19.928-6.295l21.727,10.493l-21.727-5.247      l26.496,11.662c12.545,2.787,22.189,4.678,22.189,4.678S175.866,377.474,167.17,373.746z"/>
				<path fill="none" stroke="#333334" stroke-miterlimit="10" d="M137.192,371.816c-6.896,7.195,4.495,17.091,20.085,25.186      s75.229,19.787,75.229,19.787s-56.641-39.315-65.336-43.043c-4.642-1.99-10.907-4.457-16.788-5.228"/>
				
					<ellipse transform="matrix(0.8533 0.5213 -0.5213 0.8533 219.3113 -21.3061)" fill="#414042" cx="147.526" cy="379.164" rx="8.239" ry="5.546"/>
			</g>
		</g>
	</g>
	<use xlink:href="#SVGID_2_" overflow="visible" fill="none" stroke="#000000" stroke-width="7" stroke-miterlimit="10"/>
</g>
<radialGradient id="SVGID_9_" cx="261.8062" cy="575.5225" r="180.5935" gradientUnits="userSpaceOnUse">
	<stop offset="0.6316" style="stop-color:#FFFFFF"/>
	<stop offset="0.7049" style="stop-color:#F4F5F5"/>
	<stop offset="0.8549" style="stop-color:#EAEBEB"/>
	<stop offset="1" style="stop-color:#E6E7E8"/>
</radialGradient>
<path display="none" fill="url(#SVGID_9_)" stroke="#000000" stroke-width="3" stroke-miterlimit="10" d="M474.52,493.628  c0,0-35,101-212.714,101s-212.714-101-212.714-101s-32,43-29,61S84.52,657.416,261.806,657.416S500.52,572.628,503.52,554.628  S474.52,493.628,474.52,493.628z"/>
<g display="none">
	<path fill="none" d="M20.092,554.628c3,18,64.428,102.788,241.714,102.788S500.52,572.628,503.52,554.628"/>
	<path display="inline" d="M56.142,554.339l2.238-0.219l1.138,1.429l13.104-7.662c-1.467-1.842-3.336-2.794-5.607-2.856   c-2.271-0.063-4.501,0.777-6.69,2.521l-0.395,0.337l-3.827-1.246c3.961-2.773,7.582-3.906,10.861-3.398   c3.279,0.508,6.454,2.688,9.523,6.543l6.193,7.774l-6.187,2.945l-0.687-0.862c0.585-0.274,1.117-0.604,1.597-0.985   c1.598-1.273,0.935-3.747-1.992-7.421l-0.461-0.58l-13.188,7.708l4.68,5.875l-2.944,0.164c-0.875-1.652-1.827-3.126-2.857-4.419   l-0.526-0.66l-6.027,3.523c-5.073,2.969-9.717,4.594-13.935,4.877c-4.217,0.283-7.32-0.824-9.309-3.321   c-1.073-1.348-1.337-3.104-0.792-5.271l4.345-0.224c-1.452,2.316-1.552,4.261-0.299,5.833c1.145,1.437,2.933,1.858,5.365,1.266   c2.432-0.594,6.166-2.36,11.201-5.3l7.208-4.199L56.142,554.339z"/>
	<path display="inline" d="M51.87,574.532l4.134-1.038l0.755,0.654c1.033,0.895,2.143,1.139,3.331,0.732   c1.188-0.407,2.974-1.637,5.359-3.689l9.233-7.979c2.727-2.359,5.552-3.807,8.477-4.343c2.924-0.535,5.281-0.028,7.069,1.521   c0.799,0.691,1.384,1.884,1.755,3.578l-4.495,3.876l-0.833-0.722c0.293-0.287,0.527-0.531,0.703-0.733   c1.915-2.211,2.038-4.037,0.371-5.48c-1.641-1.421-4.401-0.453-8.281,2.905l-8.299,7.164c-2.487,2.152-4.62,3.611-6.4,4.379   c-1.781,0.767-3.787,1.078-6.017,0.936l7.141,6.464c2.092,1.812,4.509,2.74,7.251,2.784l-1.353,1.168   c-2.492,0.422-4.221,0.572-5.188,0.452s-1.955-0.616-2.961-1.488L51.87,574.532z"/>
	<path display="inline" d="M79.668,597.444c-2.373-1.532-3.6-3.757-3.679-6.671c-0.079-2.915,0.999-6.103,3.234-9.563   c3.352-5.19,7.6-8.904,12.743-11.142c5.143-2.236,9.441-2.24,12.895-0.009c2.354,1.52,3.576,3.718,3.667,6.594   s-0.964,6.017-3.165,9.425c-3.498,5.415-7.767,9.236-12.809,11.464C87.514,599.771,83.218,599.737,79.668,597.444z M81.103,596.462   c2.508,1.62,5.831,1.193,9.97-1.281c4.139-2.474,7.852-6.252,11.139-11.335c4.16-6.447,4.606-10.726,1.338-12.836   c-2.508-1.621-5.824-1.217-9.947,1.212c-4.123,2.428-7.807,6.15-11.051,11.167C78.299,589.981,77.815,594.339,81.103,596.462z"/>
	<path display="inline" d="M96.076,606.431l3.792-2.075l0.203,0.096c0.052,0.024,0.151,0.097,0.297,0.218   c0.157,0.125,0.344,0.239,0.563,0.342c1.06,0.498,2.133,0.355,3.218-0.429c1.085-0.784,2.417-2.369,3.994-4.755l12.22-18.518   c-2.141-1.006-4.242-1.031-6.302-0.077c-2.06,0.955-3.686,2.7-4.877,5.237l-0.221,0.471l-3.969,0.588   c2.342-4.257,5.095-6.882,8.257-7.874c3.163-0.993,6.99-0.436,11.48,1.674c3.503,1.646,5.74,3.258,6.712,4.836   s0.919,3.514-0.159,5.807c-1.78,3.789-5.321,6.073-10.622,6.852l-0.294,10.35c-0.105,3.682,0.165,5.673,0.809,5.977   c0.707,0.332,2.566-0.332,5.579-1.991l-1.249,1.889c-3.78,2.132-6.211,2.944-7.292,2.437c-1.403-0.659-1.946-3.528-1.628-8.607   l0.653-10.507l-2.947-1.385l-1.184,1.79c-2.599,3.938-5.895,6.472-9.889,7.601l6.016,3.034l-3.636,2.148L96.076,606.431z    M115.092,595.77l4.132,1.941c3.735-0.577,6.53-2.839,8.384-6.787c1.708-3.634,0.659-6.345-3.146-8.132l-0.608-0.286   L115.092,595.77z"/>
	<path display="inline" d="M124.481,619.139l3.554-2.49l0.277,0.095c1.65,0.568,2.949,0.492,3.896-0.229   c0.946-0.721,2.195-2.592,3.746-5.614l9.979-19.345c-2.237-0.77-4.328-0.571-6.272,0.597c-1.945,1.168-3.373,3.074-4.284,5.721   l-0.169,0.49l-3.882,1.008c1.823-4.411,4.262-7.296,7.317-8.654c3.055-1.359,6.853-1.257,11.391,0.306l9.577,3.299l-3.623,5.812   l-1.026-0.354c0.287-0.55,0.509-1.056,0.668-1.517c0.404-1.174,0.192-2.153-0.637-2.938c-0.829-0.785-2.541-1.624-5.136-2.518   l-0.505-0.174l-6.436,12.55l7.264,2.502l-2.452,1.724c-2.317-1.279-3.92-2.072-4.811-2.379l-0.814-0.28l-1.17,2.286   c-1.311,2.57-2.626,4.513-3.947,5.826s-3.107,2.453-5.359,3.421l7.672,3.115l1.687,0.656c1.77,0.609,3.71,0.354,5.82-0.765   l-0.875,1.694c-2.838,1.999-5.104,2.707-6.798,2.123l-0.742-0.28L124.481,619.139z"/>
	<path display="inline" d="M147.92,625.12l3.006-2.581c0.529,2.486,1.654,3.935,3.374,4.345c1.642,0.392,3.41-0.177,5.303-1.706   c1.894-1.528,4.415-4.438,7.563-8.73l11.296-15.366c-1.17-0.489-2.191-0.838-3.063-1.046c-2.335-0.557-4.327-0.186-5.976,1.111   c-1.649,1.298-2.828,3.432-3.536,6.401l-3.816,1.444c0.898-2.827,2.053-5.067,3.462-6.722c1.562-1.845,3.168-3.039,4.821-3.583   c1.653-0.545,3.878-0.621,6.678-0.229c0.558,0.085,1.405,0.197,2.541,0.339l3.621-0.035l-1.604,7.697l-2.811,16.095   c-0.656,3.742-0.92,6.247-0.791,7.515c0.128,1.269,0.723,2.028,1.785,2.282c0.19,0.045,0.854,0.154,1.993,0.329l-0.579,1.463   l-8.107-0.091l2.009-11.474l-9.132-2.178c-2.765,3.771-5.134,6.305-7.108,7.604c-1.975,1.299-4.051,1.689-6.229,1.17   C150.554,628.682,148.987,627.33,147.92,625.12z M167.083,618.876l8.295,1.978l3.04-17.502L167.083,618.876z"/>
	<path display="inline" d="M185.108,635.304l3.057-3.056l0.241,0.133c0.131,0.053,0.458,0.119,0.98,0.2   c1.26,0.197,2.289-0.271,3.087-1.403c0.798-1.133,1.737-3.444,2.817-6.937l5.623-18.266l-4.306-0.672   c-4.369-0.682-6.921,1.339-7.659,6.061c-0.087,0.56-0.144,1.259-0.17,2.099l-3.893,1.707c1.189-4.492,3.201-7.886,6.035-10.181   c2.833-2.295,6.083-3.156,9.748-2.585l7.217,1.126c3.257,0.509,5.458,0.55,6.606,0.124s2.067-1.626,2.759-3.604l2.775-1.022   c-1.245,2.766-3.142,4.864-5.69,6.297c-2.548,1.432-5.264,1.923-8.146,1.474l-1.702-0.266l-4.9,15.872   c-0.875,2.855-1.856,5.062-2.942,6.618c-1.085,1.558-2.628,2.968-4.626,4.231l6.541,1.211l-2.904,3.08L185.108,635.304z"/>
	<path display="inline" d="M228.646,638.542l2.556-3.398c1.089,2.641,2.667,3.988,4.733,4.044c1.354,0.037,2.576-0.717,3.663-2.26   c1.087-1.544,1.855-3.607,2.305-6.19l3.86-22.309c-0.582-0.141-0.988-0.215-1.218-0.221c-1.894-0.052-3.498,0.829-4.81,2.642   c-1.313,1.813-2.006,4.095-2.081,6.845l-3.401,2.149c0.36-4.379,1.732-7.755,4.117-10.128c2.385-2.374,5.534-3.508,9.449-3.401   l1.395,0.037c1.905,8.152,3.229,16.517,3.974,25.093l11.973-24.661l3.7-0.489l-1.513,7.532l-3.328,19.185   c-0.287,1.707-0.445,3.071-0.473,4.093c-0.037,1.383,0.558,2.091,1.786,2.124c0.608,0.017,1.426-0.047,2.452-0.192l-0.265,1.502   l-8.569,2.081l5.291-30.575l-12.479,25.521l-1.783,0.329l0.019-0.684c0.166-6.146-0.724-13.806-2.67-22.98l-1.672,9.58   c-2.043,11.82-5.958,17.651-11.744,17.495C231.893,641.249,230.137,640.328,228.646,638.542z"/>
	<path display="inline" d="M270.081,639.617l2.173-3.313c1.197,2.242,2.679,3.322,4.445,3.239c1.687-0.079,3.228-1.115,4.623-3.108   s3.011-5.489,4.847-10.485l6.595-17.896c-1.26-0.146-2.337-0.197-3.232-0.155c-2.397,0.112-4.209,1.021-5.434,2.724   c-1.226,1.704-1.767,4.081-1.624,7.131l-3.266,2.445c0.08-2.965,0.567-5.438,1.464-7.418c0.989-2.205,2.202-3.798,3.64-4.779   c1.437-0.981,3.554-1.671,6.353-2.07c0.56-0.073,1.404-0.199,2.534-0.379l3.47-1.036l0.592,7.84l1.761,16.243   c0.406,3.777,0.847,6.257,1.322,7.439c0.475,1.183,1.257,1.749,2.348,1.698c0.194-0.01,0.863-0.088,2.006-0.236l-0.15,1.565   l-7.814,2.16l-1.249-11.581l-9.379,0.439c-1.611,4.388-3.185,7.479-4.722,9.275c-1.537,1.795-3.424,2.745-5.661,2.851   C273.597,642.309,271.718,641.444,270.081,639.617z M286.761,628.306l8.519-0.398l-1.931-17.659L286.761,628.306z"/>
	<path display="inline" d="M308.967,646.868l2.659-2.561c1.563,1.569,3.418,2.234,5.563,1.992c1.506-0.169,2.594-0.906,3.262-2.211   s1.083-3.489,1.247-6.553c0.012-0.208,0.029-0.511,0.054-0.91c-1.943,1.01-4.022,1.639-6.236,1.889   c-2.933,0.33-5.377-0.565-7.332-2.686c-1.954-2.12-3.155-5.171-3.604-9.152c-0.701-6.229,0.284-11.744,2.957-16.544   c2.673-4.799,6.246-7.45,10.72-7.953c2.545-0.287,5.076-0.128,7.595,0.476l-0.673,6.349l-1.044,0.117   c-0.016-0.553-0.047-1.032-0.093-1.439c-0.156-1.393-0.831-2.453-2.022-3.183s-2.683-0.993-4.475-0.792   c-3.059,0.345-5.512,2.756-7.359,7.236c-1.848,4.479-2.459,9.493-1.835,15.039c0.381,3.391,1.424,5.983,3.128,7.776   c1.704,1.794,3.835,2.547,6.392,2.26c1.574-0.178,2.889-0.57,3.941-1.178l0.381-11.863l-3.03,0.341   c-2.009,0.226-3.735,1.313-5.181,3.26l0.041-1.639c1.749-2.948,3.65-4.539,5.704-4.77l6.129-0.69l-0.521,7.393l-0.183,5.621   c-0.172,5.146-1.063,9.008-2.675,11.586c-1.61,2.578-4.054,4.052-7.329,4.421C312.684,648.777,310.624,648.233,308.967,646.868z"/>
	<path display="inline" d="M331.268,636.675l1.841-3.899l0.245-0.094c0.065-0.028,0.213-0.049,0.445-0.061   c0.115-0.006,0.241-0.021,0.376-0.047c1.23-0.232,2.062-0.921,2.494-2.067c0.432-1.146,0.589-3.083,0.471-5.813l-0.953-22.597   c-2.324,0.438-4.042,1.647-5.153,3.625c-1.11,1.978-1.406,4.342-0.887,7.092l0.096,0.51l-2.872,2.799   c-1.144-9.272,2.811-14.764,11.861-16.473l4.892-0.924c3.769-0.711,6.67-0.263,8.704,1.345c2.033,1.608,3.461,4.591,4.284,8.947   c1.333,7.061,0.596,12.924-2.21,17.59c-2.807,4.667-7.347,7.592-13.621,8.776c-0.26,0.049-0.789,0.125-1.588,0.228L331.268,636.675   z M336.828,632.602l3.145,0.126c1.709,0.077,3.41-0.044,5.104-0.363c2.324-0.439,4.053-1.218,5.187-2.335   c1.133-1.118,2.033-2.94,2.701-5.467c1.183-4.447,1.303-9.166,0.36-14.156c-1.453-7.694-5.283-10.955-11.489-9.783l-2.116,0.399   l0.767,18.264c0.146,3.317-0.029,5.878-0.53,7.685C339.455,628.777,338.412,630.654,336.828,632.602z"/>
	<path display="inline" d="M359.721,629.317l1.351-3.725c1.683,1.906,3.373,2.615,5.073,2.127c1.623-0.466,2.883-1.829,3.781-4.091   s1.664-6.035,2.299-11.32l2.291-18.934c-1.26,0.149-2.32,0.347-3.182,0.594c-2.307,0.662-3.86,1.964-4.659,3.904   c-0.8,1.94-0.778,4.378,0.064,7.313l-2.614,3.133c-0.606-2.904-0.702-5.423-0.286-7.557c0.454-2.373,1.267-4.203,2.439-5.489   c1.172-1.286,3.073-2.445,5.704-3.479c0.527-0.201,1.321-0.519,2.379-0.953l3.137-1.81l2.384,7.493l5.458,15.399   c1.267,3.581,2.268,5.893,3.003,6.935c0.734,1.041,1.626,1.411,2.675,1.11c0.188-0.054,0.82-0.285,1.898-0.692l0.214,1.558   l-7.105,3.904l-3.886-10.981l-9.024,2.59c-0.556,4.642-1.375,8.013-2.456,10.114c-1.082,2.102-2.699,3.462-4.852,4.079   C363.765,631.126,361.737,630.719,359.721,629.317z M373.345,614.465l8.196-2.352l-5.95-16.738L373.345,614.465z"/>
	<path display="inline" d="M394.42,620.986l0.94-4.157l0.925-0.379c1.264-0.519,1.983-1.399,2.156-2.643s-0.117-3.393-0.872-6.447   l-2.952-11.84c-0.874-3.498-0.891-6.673-0.048-9.524c0.842-2.852,2.357-4.726,4.547-5.622c0.978-0.4,2.307-0.384,3.985,0.049   l1.43,5.761l-1.021,0.418c-0.123-0.391-0.235-0.71-0.337-0.958c-1.108-2.706-2.683-3.641-4.723-2.805   c-2.009,0.822-2.391,3.723-1.146,8.701l2.646,10.64c0.798,3.189,1.138,5.752,1.018,7.688c-0.119,1.935-0.746,3.865-1.881,5.791   l8.991-3.454c2.562-1.049,4.48-2.786,5.758-5.213l0.432,1.734c-0.749,2.414-1.396,4.025-1.938,4.834   c-0.544,0.809-1.432,1.466-2.665,1.971L394.42,620.986z"/>
	<path display="inline" d="M418.125,611.055l0.621-4.296l0.259-0.136c1.545-0.813,2.379-1.812,2.503-2.994   c0.123-1.184-0.384-3.376-1.522-6.575l-7.255-20.522c-2.094,1.102-3.382,2.761-3.863,4.978s-0.071,4.563,1.232,7.04l0.241,0.459   l-1.926,3.518c-1.964-4.35-2.394-8.103-1.291-11.259c1.104-3.156,3.779-5.853,8.027-8.088l8.965-4.717l1.751,6.621l-0.961,0.505   c-0.204-0.585-0.42-1.094-0.646-1.524c-0.578-1.1-1.438-1.616-2.577-1.55s-2.924,0.739-5.353,2.017l-0.473,0.249l4.732,13.286   l6.8-3.577l-0.425,2.967c-2.519,0.812-4.195,1.436-5.028,1.874l-0.763,0.401l0.864,2.419c0.975,2.716,1.487,5.005,1.539,6.866   c0.052,1.862-0.342,3.944-1.18,6.248l7.526-3.454l1.633-0.779c1.657-0.872,2.801-2.46,3.432-4.764l0.634,1.798   c-0.488,3.438-1.525,5.573-3.11,6.407l-0.713,0.349L418.125,611.055z"/>
	<path display="inline" d="M438.71,597.995l-0.085-4.233c2.5,1.392,4.569,1.476,6.208,0.253c1.095-0.817,1.594-2.165,1.495-4.044   c-0.098-1.879-0.775-3.978-2.032-6.296l-10.775-19.885c-0.545,0.25-0.914,0.446-1.106,0.591c-1.51,1.126-2.219,2.808-2.126,5.044   c0.092,2.236,0.961,4.456,2.606,6.661l-1.339,3.795c-2.308-3.477-3.316-6.912-3.026-10.307s1.825-6.129,4.604-8.203l1.326-0.989   c3.43,2.62,7.324,5.236,11.682,7.85l4.941,2.964c3.415,2.022,6.085,3.729,8.01,5.117l-6.565-12.11   c-2.268-4.173-3.494-7.794-3.679-10.864c-0.185-3.069,0.681-5.319,2.596-6.747c0.681-0.509,1.479-0.83,2.396-0.965l0.91,3.293   c-1.478-0.271-2.594-0.124-3.349,0.438c-1.987,1.484-1.555,4.849,1.3,10.095l8.55,15.778l3.525,6.079l-1.146,2.15   c-1.394-1.176-4.345-3.114-8.852-5.813l-9.504-5.68c-2.538-1.52-4.745-2.922-6.623-4.209l4.381,8.06   c2.761,5.102,4.277,9.473,4.551,13.112c0.273,3.642-0.717,6.303-2.973,7.985C443.029,598.098,441.062,598.457,438.71,597.995z"/>
	<path display="inline" d="M467.76,576.568l-1.036-3.824c2.472,0.593,4.263,0.2,5.373-1.177c1.06-1.313,1.307-3.154,0.742-5.521   c-0.565-2.367-2.108-5.896-4.629-10.584l-9.011-16.809c-0.945,0.847-1.699,1.618-2.262,2.315c-1.507,1.868-2.029,3.825-1.567,5.873   c0.461,2.047,1.88,4.028,4.257,5.945l-0.337,4.066c-2.166-2.027-3.692-4.033-4.579-6.018c-0.993-2.203-1.38-4.167-1.16-5.894   c0.219-1.727,1.108-3.769,2.666-6.127c0.317-0.467,0.783-1.183,1.399-2.147l1.526-3.283l6.258,4.76l13.32,9.462   c3.095,2.202,5.243,3.518,6.443,3.947c1.199,0.429,2.142,0.22,2.827-0.63c0.122-0.152,0.508-0.704,1.155-1.657l1.071,1.151   l-3.57,7.279l-9.492-6.75l-5.895,7.307c2.213,4.118,3.481,7.347,3.806,9.688c0.323,2.341-0.219,4.383-1.625,6.126   C472.108,575.724,470.214,576.556,467.76,576.568z M470.368,556.583l5.354-6.637l-14.491-10.273L470.368,556.583z"/>
</g>
</svg>