<?xml version="1.0" encoding="utf-8"?>
<!-- Generator: Adobe Illustrator 16.0.4, SVG Export Plug-In . SVG Version: 6.00 Build 0)  -->
<!DOCTYPE svg PUBLIC "-//W3C//DTD SVG 1.1//EN" "http://www.w3.org/Graphics/SVG/1.1/DTD/svg11.dtd">
<svg version="1.1" id="Ebene_1" xmlns="http://www.w3.org/2000/svg" xmlns:xlink="http://www.w3.org/1999/xlink" x="0px" y="0px"
	 width="415px" height="589.285px" viewBox="9.463 5.715 415 589.285" enable-background="new 9.463 5.715 415 589.285"
	 xml:space="preserve">
<g id="Ebene_1_1_">
</g>
<g id="Ebene_2">
	<g>
		<g>
			<defs>
				<rect id="SVGID_1_" width="436.43" height="600"/>
			</defs>
			<clipPath id="SVGID_2_">
				<use xlink:href="#SVGID_1_"  overflow="visible"/>
			</clipPath>
			<path clip-path="url(#SVGID_2_)" fill="#009BB1" d="M38.656,212.615c0-98.765,80.335-179.104,179.095-179.104
				c98.749,0,179.093,80.339,179.093,179.104c0,98.766-80.344,179.119-179.093,179.119
				C118.991,391.734,38.656,311.381,38.656,212.615 M33.497,212.615c0,101.594,82.652,184.254,184.254,184.254
				c101.599,0,184.251-82.66,184.251-184.254c0-101.6-82.652-184.249-184.251-184.249C116.149,28.366,33.497,111.015,33.497,212.615
				"/>
		</g>
		<g>
			<defs>
				<rect id="SVGID_3_" width="436.43" height="600"/>
			</defs>
			<clipPath id="SVGID_4_">
				<use xlink:href="#SVGID_3_"  overflow="visible"/>
			</clipPath>
			<path clip-path="url(#SVGID_4_)" fill="#009BB1" d="M338.807,242.579c-5.018,4.688-12.123,4.757-17.879,8.512
				c-2.642,2.66-1.972,5.647-0.893,8.998c2.126,4.197,1.321,3.755-1.652,4.764c-6.942,2.294-6.867,9.905-15.222,8.634
				c-0.473,0.132-2.429-0.828-1.271,0.569c0.899,1.062,1.271,0.394,3.044,0.636c2.975,0.132,4.081-1.08,6.173-2.529
				c2.979-2.484,2.625-3.434,6.288-5.207c0.879-0.195,3.039-0.832,4.245-0.416c0.816,0.735,0.839,0.769,0.972,1.432
				c-0.477,2.032-3.446,3.74-4.579,4.441c1.56,1.143,4.482,3.086,4.01,4.697c-0.667,1.075-0.635,1.262-1.817,1.834
				c-1.649,0.773-4.955,0.648-8.07-1.644c-0.476,0.132-0.992-0.912-2.325,0.352c3.037,3.133,7.284,2.413,7.921,3.052
				c0.635,0.635-2.27,4.403-2.4,5.224c-2.034,5.401,0.464,10.395-0.627,16.005c-0.669,4.404-1.984,6.508-5.836,9.269
				c-7.067,4.887-12.021,6.307-19.951,7.578c-20.789,1.434-33.906-5.712-48.877-16.888c-14.973-11.194-20.699-17.125-25.373-23.438
				c-0.067-2.553,1.826-4.518,0.207-7.308c-1.352,0.497-1.219,2.225-2.034,3.246c-1.154,1.64-3.927,2.848-5.896,2.655
				c-6.159-2.096-6.5-9.334-10.351-13.462c-8.263-8.126-10.571-19.862-6.163-29.649c1.553-3.092,4.327-5.965,7.449-7.045
				c3.851-0.628,8.395-0.628,10.902,3.113c2.971,2.806,4.809,7.432,5.546,11.495c1.221,1.967-0.266,4.192,1.76,5.837
				c3.52,0.32,6.565,1.207,9.953-0.952c2.508,0.322,2.852,3.112,4.742,4.32l3.391,2.032c3.584,1.466,8.195,1.466,11.242-1.147
				c5.688-5.834,4.445-11.807,6.407-18.223c5.423-4.819,9.025-11.727,8.959-18.405c-0.338-4.126-1.823-8.428-4.266-12.509
				c0.403-2.466,1.758-4.302,2.573-6.464c0.681-0.388,1.561-0.388,2.301-0.516c6.027-1.32,11.516-6.788,13.881-12.558l0.54-0.516
				c6.907-0.498,15.511-2.919,19.504-10.159c0.815-3.111,4.335-0.822,6.5-1.577c3.654-0.195,7.316-2.225,10.091-4.581
				c0.813-0.305,1.418,0.584,1.901,1.006c1.616,5.412,4.601,10.62,6.295,16.132c2.095,4.127,2.848,8.014,2.095,12.253
				c0.885,6.415,4.539,12.445,7.113,18.927c2.571,6.852,6.563,13.768,9.479,20.813C339.345,238.062,340.564,240.291,338.807,242.579
				 M340.215,230.769c-4.873-11.237-10.351-20.94-14.357-32.242c-2.839-4.062-1.209-8.383-1.551-12.705
				c-1.828-6.787-4.674-11.995-7.381-18.587c-0.746-1.899,1.354-2.42,2.104-3.756c1.22-3.353,0.34-7.075-1.155-10.268
				c-0.605-1.792,1.561-3.112,1.155-4.993c-0.079-2.893-2.644-4.861-4.677-6.438c-3.051-4.386-4.467-6.719-8.263-10.675v-0.758
				c1.894-1.706,3.458-4.623,3.389-7.109c-0.75-2.851-1.354-5.493-4.067-7.459c-4.328-2.439-8.726,1.366-12.179,3.333
				c-0.959,0.651-1.43,1.339-2.783,1.21c-0.875-0.316-1.787-0.635-2.705-0.957c-0.887,1-1.982,2.061-3.329,3.12l4.207,1.712
				c0.151,0.123,0.21,0.193,0.21,0.342c0,0.094-0.027,0.223-0.049,0.346c-0.293,0.254-9.739,8.515-9.739,8.515
				c-0.024,0.007-17.022,16.819-17.022,16.819c0,0.003-4.877,4.952-4.877,4.952c-0.023,0.01-15.129,17.448-15.129,17.448
				c-7.9,9.147-19.57,24.189-26.593,35.177c-3.653,5.066-7.297,10.654-10.694,15.929c-0.368,0.575-1.06,0.516-2.157,0.388
				c-0.748-0.069-1.515-0.137-2.205,0.112h0.029l-0.152,0.011c0.038-0.002,0.085-0.005,0.123-0.011
				c-3.843,0.394-6.634,1.666-9.623,4.388c-3.881,4.572-5.831,10.098-5.831,16.066c0,4.12,0.936,8.44,2.821,12.809
				c-0.795,2.298-2.622,4.38-4.259,6.169l-0.908,1.017l-1.164,1.143c-0.757,0.751-1.619,1.557-2.244,2.343l-0.057,0.067
				l-0.038,0.118c-0.076,0.254-0.112,0.709,0.636,1.085l0.178,0.102l0.2-0.044c3.578-0.877,5.83-3.55,8.015-6.152
				c0,0,1.373-1.585,1.571-1.834c0.322-0.035,0.588,0.126,1.061,0.556c0.245,0.196,0.528,0.389,0.851,0.524v0.186
				c0,0-0.048,1.147-0.057,1.441c-8.471,8.337-15.368,13.087-24.387,18.365l-1.506,0.886l1.741,0.188
				c3.521,0.354,6.862-1.644,10.089-3.551l3.881-2.125c3.585-1.825,6.908-4.659,10.134-7.341c0,0,2.915-2.415,3.228-2.668
				c0.302,0.013,0.642,0.426,0.908,0.714c0,0,0.19,0.239,0.313,0.367c0.057,0.075,2.706,5.336,2.866,5.652
				c-0.606,2.48-0.87,4.959-0.87,7.465c0,5.422,1.174,10.817,2.328,16.09c1.135,5.207,2.309,10.593,2.309,15.871
				c0,0.342-0.008,0.69-0.019,1.049c0,1.617-1.789,3.776-3.275,4.467c-3.388,0.578-7.476,0.628-11.81,0.642
				c-5.307,0.063-10.806,0.117-15.027,1.26c-1.363,0.139-2.934,0.592-4.457,1.021c-1.496,0.409-3.038,0.862-4.477,1.043
				l-0.141,0.036l-0.163,0.125l-0.519,0.345c-0.482,0.301-1.078,0.678-1.221,1.375c-0.009,0.065-0.018,0.125-0.018,0.194
				c0,0.423,0.188,0.845,0.491,1.181c0.293,0.276,0.663,0.424,1.041,0.396c1.278,0,2.706-0.511,4.098-1.02
				c0.966-0.355,1.978-0.729,2.905-0.885c8.82-1.518,18.491-1.201,25.04-0.66c3.236-0.076,8.545-0.162,10.457-4.771
				c0.691-1.858,0.927-3.584,0.927-5.24c0-1.836-0.283-3.608-0.577-5.446l-0.576-4.451c-0.389-2.725-0.966-5.453-1.525-8.072
				c-0.992-4.682-2.016-9.501-2.016-14.337c0-1.007,0.057-1.976,0.142-2.98c0.095-0.126,0.198-0.279,0.323-0.311
				c0.285-0.011,0.786,0.375,1.183,0.692c0.454,0.354,0.917,0.697,1.428,0.826c0.587,0.445,1.25,0.571,1.855,0.637
				c0.843,0.124,1.297,0.229,1.563,0.884c0.378,4.259,1.855,8.696,3.283,12.956c0.984,2.959,2.007,6.012,2.66,8.975
				c1.163,5.184,2.336,10.494,2.336,15.695c0,3.072-0.416,6.178-1.504,9.168c-2.263,4.129-7.212,4.162-11.991,4.178h-1.428
				l-11.716-0.732c-10.051-0.717-20.441-1.444-31.096,0.25c0.074-0.014-2.385,0.259-2.385,0.259
				c-1.316,0.215-2.556,0.358-3.89,0.049c-0.492-0.388-0.891-1.088-0.891-1.786c0-0.247,0.038-0.466,0.133-0.704
				c1.903-4.192,2.86-7.996,2.86-11.354c0-2.733-0.627-5.151-1.875-7.305c-2.755-5.271-5.782-8.945-9.52-11.49
				c-4.574-4.573-8.486-8.634-11.963-12.583c-2.032-0.261-3.282-0.678-3.417-0.699l-0.453-0.173l-2.034,2.523
				c2.641,2.492,5.081,5.008,8.062,7.7c4.535,2.467,8.196,6.851,11.442,9.835c3.928,4.604,4.873,9.461,4.059,14.898
				c-0.538,6.432-6.426,9.188-10.428,13.473c-1.618,3.047-2.64,6.711-0.407,9.539c1.43,3.793,7.514,3.113,8.262,6.223
				c1.675,6.906,13.609,10.881,15.937,11.027c2.317,0.146,4.721,2.736,4.721,2.736c4.741,3.465,10.968,2.6,14.243,2.1
				c3.264-0.497,9.113,2.148,12.775,1.628c5.479-2.165,9.956-1.149,15.643-1.64c17.875,0.268,38.185-0.129,56.467,2.16
				c3.389-0.394,7.445,2.264,10.639,0.631c0.812-1.381,0.2-2.523,0-3.678c-8.736-13.725-10.043-29.175-5.092-44.117l3.304,0.186
				c11.854,1.275,22.64-0.25,34.686-7.232c6.028-3.307,9.196-11.071,8.925-16.694c-0.201-3.672-1.468-7.977-0.854-11.829
				c0.212-1.734,1.354-4.354,2.833-5.179c0.641-0.327,2.857-1.845,3.555-3.759c1.145-3.161-1.312-4.626-2.021-5.064
				c1.914-0.767,3.769-4.697,2.007-7.743c-1.133-1.206-2.45-5.966-2.588-7.5c-0.407-2.227-0.472-4.56,1.628-5.965
				c4.742-2.528,9.209-3.111,14.147-5.272c3.388-1.449,5.146-4.948,5.015-8.124L340.215,230.769z M146.632,342.43
				c-0.606,1.075-0.521,1.816-0.795,3.107c-0.331,0.613-2.025-0.227-2.563-0.527c-2.103-1.139-1.961-0.588-2.567-2.521
				c-0.34-1.288-0.302-2.842,1.865-3.956c1.352-0.769,4.06-1.688,4.939,0C147.787,339.646,146.435,341.111,146.632,342.43
				 M158.188,357.066c-2.775,0.037-4.724-1.48-6.01-4.732c-1.297-4.156-1.732-7.838-0.834-12.133c0.285-0.555,0.9-0.891,1.297-0.732
				l3.872-1.299c1.297-0.523,2.355-0.732,3.596-0.406l0.785,0.771c-0.058,2.25-0.617,3.934-0.672,5.994
				c-0.228,5.268-0.672,6.832,0.841,11.805C160.505,357.668,159.388,357.033,158.188,357.066 M317.312,162.275
				c-0.378,0.386-0.851,0.889-1.481,0.705c-1.441-1.013-0.896-2.285-0.809-3.492c0.297-0.292,0.342-0.45,0.809-0.45
				c0.68-0.123,1.06,0.383,1.312,0.758C317.572,160.565,317.617,161.454,317.312,162.275 M207.436,225.69
				c9.481-17.008,21-31.745,33.321-46.925l17.267-19.655c12.32-13.141,25.935-26.603,41.037-37.016
				c1.892-1.102,2.727-3.33,4.687-1.77l1.772,1.647c1.195,1.341,0.153,5.202-1.065,6.282c-0.976,0.773-1.921,1.584-2.857,2.35
				c2.944,2.919,7.193,8.448,10.685,12.057c1.534,1.585,1.061,3.188,3.803,4.489c1.375,0.652,1.762,2.122,0.947,3.414
				c-2.433,3.139-6.494,2.641-9.683,3.462c-11.844,2.648-21.425,6.031-34.53,12.381c-10.492,5.578-18.891,11.736-26.48,21.265
				c-2.904,3.609-6.158,6.29-8.589,10.654c-6.908,8.839-12.397,17.203-17.886,26.344c-1.962,2.863-2.604,4.268-5.349,6.871
				c-1.333,1.269-2.525-1.347-3.359-2.29c-0.095-0.075-0.152-0.198-0.217-0.318c-0.285,0.055-0.577-0.006-0.86-0.196
				C209.337,227.787,207.027,227.396,207.436,225.69 M311.882,160.007c-0.179,3.291-4.562,6.017-8.224,7.032
				c-1.562,0.251-3.001,0.133-4.383,0.133c-0.359-0.254-0.773-0.522-0.72-0.894c0.238-1.578,0.483-2.474,0.599-3.874l0.908-0.689
				c3.233-0.639,7.19-1.338,10.438-2.173C310.985,159.616,311.578,159.56,311.882,160.007 M277.854,168.565l0.588-0.758
				c2.646-1.245,5.119-2.225,8.062-3.057l3.527-0.943c0.936-0.833,2.588-1.529,3.532-0.324c0.057,4.57-3.359,10.038-8.414,12.182
				c-1.588,0.688-3.709,0.898-5.596,1.347c-0.472-0.388-2.006,0.491-2.465-0.659C277.377,174.029,278.261,170.604,277.854,168.565
				 M241.705,249.613c-0.948,0.522-9.137-2.592-8.18-1.709c-1.94-2.096,1.229-2.841-5.989-5.521l-1.755,0.188
				c-0.225,0.196-0.859,0.514-1.51-0.378c-0.069-1.082,1.359-0.945,1.812-2.284c2.584-5.834,1.164-10.34,0.913-16.37l1.909-4.949
				c3.623-4.331,3.615-4.963,6.074-7.364c2.461-3.436,2.972-3.693,6.267-6.545c0.539-0.449,1.532-0.827,2.176-0.307
				c1.554,1.253,1.638,2.024,2.095,3.601c0.772,5.727-2.709,9.709-6.908,12.822c-2.984,2.549-5.819,6.547-5.183,10.479l0.261,0.259
				c1.359-1.144,3.072-1.834,3.65-3.238c2.271-5.076,8.385-7.369,11.809-11.753c1.488-2.66,0.576-7.233,0-10.28
				c-0.017,0.07,4.487-2.15,3.265-1.334c2.142,0.887,1.876,2.413,2.907,4.378c2.009,5.08,1.839,9.655-1.268,14.041l-8.533,10.659
				C245.382,239.413,246.878,246.395,241.705,249.613 M252.965,198.08c-2.055,0.95-4.167,1.145-6.438,0.12
				c-0.578-0.814-2.45-1.448-1.711-2.594c1.646-2.667,4.436-4.884,6.15-7.492l0.79-0.439c3.476-4.191,8.947-7.687,14.132-10.855
				l3.137-1.341c0.681-0.693,2.279-2.097,2.9-0.635c0.113,5.46-2.193,11.3-7.398,15.168c-3.164,2.301-4.515,1.853-7.332,2.038
				l-1.451,2.608C255.402,195.983,254.27,197.312,252.965,198.08 M224.23,229.246l-0.139,3.869
				c-0.354,3.499-1.979,7.561-5.292,9.528c-1.979-0.451-1.268-2.853-1.761-4.45c1.267-3.543,3.74-6.462,5.785-9.574
				c0.273-0.195,0.557-0.323,0.841-0.195L224.23,229.246z M177.085,363.51c-1.382,1.43-2.157,0.76-3.558,0.889
				c-3.984-1.09-6.34-2.834-7.467-7.321c-1.458-6.315-1.409-13.211,0-19.66l0.644-0.494c2.801-0.321,7.041-0.897,8.195-0.264
				c1.146,0.635-1.241,11.95-1.241,11.95c-0.074,2.259,1.024,7.988,2.045,11C175.921,360.023,178.211,362.316,177.085,363.51
				 M205.997,356.52c-0.426,4.015-5.498,7.57-7.978,8.312c-2.489,0.711-9.917,0.367-12.056-0.379
				c-2.13-0.754-7.344-10.92-6.738-16.229c0-4.342,1.175-11.293,2.924-11.83c1.752-0.559,6.387-0.263,6.387-0.263
				c1.941-0.13,3.407,0.333,5.112,0.521c1.21,0.479,0.359,2.002,0.784,2.861c0.549,2.234,0.673,4.693,2.072,6.922
				c1.95,3.797,5.537,6.035,9.067,7.357C206.366,354.537,205.929,355.514,205.997,356.52 M200.299,339.428
				c0-0.846,0.047-1.146,0.663-1.41h3.349c2.972,0.099,6.796,1.049,9.578-1.805c1.599,0.055,1.741,1.957,2.165,3.426
				c0.38,2.062,0.285,3.355,0.285,5.205c-0.663,1.453-1.409,3.684-2.923,4.613c-2.404,1.141-4.819,0.904-7.126,0
				C202.798,347.387,200.253,344.084,200.299,339.428 M268.859,323.441c-4.475,15.494-6.604,23.492,0.379,39.483
				c0.07,0.619,0.74,2.562,0,2.853c-7.723-1.566-9.773-2.217-17.023-2.74c-6.697-1.176-17.826,0.674-25.275,0.637
				c-5.819,0.168-11.714,0.391-17.811,1.143c-1.826-0.975-0.408-3.006-0.265-4.325c0.672-2.13,0.738-3.199,0.947-5.638
				c0.946-1.002,2.101-0.479,3.246-0.944c3.926-0.621,7.25-4.06,8.193-7.734c1.225-3.829-0.13-8.122-1.893-11.782
				c-0.338-1.062-1.823-1.9-1.219-2.953c4.807-9.01,1.418-18.152-0.196-26.967c-1.697-6.227-4.27-13.141-5.292-19.704
				c0.207-0.677-0.672-2.257,0.813-2.385l0.549,0.128c5.136,6.271,19.874,19.443,25.392,23.734
				c5.517,4.26,19.769,12.582,29.041,14.814C269.326,321.797,269.189,322.428,268.859,323.441"/>
		</g>
		<g>
			<defs>
				<rect id="SVGID_5_" width="436.43" height="600"/>
			</defs>
			<clipPath id="SVGID_6_">
				<use xlink:href="#SVGID_5_"  overflow="visible"/>
			</clipPath>
			<path clip-path="url(#SVGID_6_)" fill="#009BB1" d="M307.994,188.619c0.942,1.21,1.562,2.29,0.812,3.436
				c-1.76,0.128-2.034-2.097-3.521-2.854c-2.438-1.208-4.608,0.112-7.039,0.693c-6.161,2.659-11.311,7.931-17.27,10.718
				c-0.738,0-1.425-0.065-1.896-0.627c1.016-1.014,2.639-1.21,3.927-2.032c6.166-4.062,12.124-10.413,19.841-11.559
				C304.881,186.266,306.709,186.975,307.994,188.619"/>
		</g>
		<g>
			<defs>
				<rect id="SVGID_7_" width="436.43" height="600"/>
			</defs>
			<clipPath id="SVGID_8_">
				<use xlink:href="#SVGID_7_"  overflow="visible"/>
			</clipPath>
			<path clip-path="url(#SVGID_8_)" fill="#009BB1" d="M307.52,199.035c-0.472-1.47-0.405-3.934-2.233-4.258
				c-0.404,0.951,0,1.969-0.404,2.854c-0.541,0.646-1.487,1.468-2.575,1.208c-7.451,0.453-13,7.047-19.365,10.415
				c-2.164,1.211-4.604,1.904-6.902,2.531c-0.211,0.324-0.135,0.822,0.197,1.015c7.049,0.712,14.016,1.405,21,2.16l7.774-0.886
				c0.21-1.015-1.01-1.901-0.812-3.047c0.893-3.175,1.156-6.656,0.271-9.639C305.09,199.792,307.39,201,307.52,199.035
				 M302.081,211.086c-0.958,1.4-2.475,0.142-3.808,0.326c-3.047-0.326-8.196,0.376-11.558-0.061
				c-0.507-0.265-0.889-0.825-0.577-1.277c0.516-0.827,1.916-0.889,2.801-1.53c3.684-2.333,7.553-4.5,11.743-5.512
				c0.762-0.123,1.397,0.514,1.527,1.074C302.713,206.023,302.397,209.186,302.081,211.086"/>
		</g>
		<g>
			<defs>
				<rect id="SVGID_9_" width="436.43" height="600"/>
			</defs>
			<clipPath id="SVGID_10_">
				<use xlink:href="#SVGID_9_"  overflow="visible"/>
			</clipPath>
			<path clip-path="url(#SVGID_10_)" fill="#009BB1" d="M311.457,233.946c0.249-0.374,0.528-0.76,0.863-0.771
				c0.446,0.139,0.678,0.335,0.739,1.156c-0.055,1.326-0.391,2.715-0.741,4.175c-0.404,1.652-0.815,3.315-0.815,4.967
				c0,0.756,0.082,1.507,0.278,2.211c0.982,1.21,2.491,1.47,4.305,0.884c0.035-0.049,3.084-1.773,3.084-1.773
				c2.653-1.588,5.161-3.103,9.809-4.258c0.111-0.053,0.137,0.002,0.153,0.008c0.073,0.07,0.107,0.255,0.107,0.455
				c0,0.43-0.118,0.948-0.309,1.392c-0.176,0.109-4.475,2.021-4.475,2.021c-3.376,1.465-6.872,2.99-10.148,4.886
				c-0.969,0.193-1.862-0.326-2.729-0.828l-0.21-0.125c-1.247-1.712-1.647-3.362-1.647-5.012c0-1.513,0.319-2.978,0.656-4.502
				c0.311-1.402,0.621-2.865,0.696-4.436C311.178,234.269,311.457,233.946,311.457,233.946"/>
		</g>
		<g>
			<defs>
				<rect id="SVGID_11_" width="436.43" height="600"/>
			</defs>
			<clipPath id="SVGID_12_">
				<use xlink:href="#SVGID_11_"  overflow="visible"/>
			</clipPath>
			<path clip-path="url(#SVGID_12_)" fill="#009BB1" d="M205.95,232.553c2.44,5.011-0.135,9.767,0,14.975
				c0.406,1.467,3.321,1.709,2.44,3.435c-0.682,0.498-1.628,0.626-2.375,0.064c-1.354-0.883-1.827-1.531-2.167-3.112
				c-0.34-4.578,3.321-9.961,0.066-14.283c-0.946-0.951-2.299-1.901-3.653-1.966c-2.915,0.562-4.4,3.674-5.412,5.963
				c-1.562,6.093-1.969,12.515,3.378,17.395c3.122,1.837,6.908,3.805,7.115,7.738c0.473,0.694,1.42,1.339,2.168,0.951
				c0.946-0.064,1.079-2.787,2.433-1.512l0.405,0.95c-0.339,1.079-0.671,2.983-2.431,3.047c-0.881,0.222-1.836-0.261-2.575-0.778
				c-1.901-1.964-0.406-4.947-3.596-6.25c-5.279-1.616-8.733-7.193-9.274-12.401c-0.34-5.011-0.132-10.479,4.202-14.909
				c1.694-1.276,3.929-2.098,6.095-1.404C203.99,230.647,205.409,231.535,205.95,232.553"/>
		</g>
		<g>
			<defs>
				<rect id="SVGID_13_" width="436.43" height="600"/>
			</defs>
			<clipPath id="SVGID_14_">
				<use xlink:href="#SVGID_13_"  overflow="visible"/>
			</clipPath>
			<path clip-path="url(#SVGID_14_)" fill="#009BB1" d="M139.749,269.178c-9.642,4.496-12.585,15.966-12.709,16.441l-0.255,1.015
				l0.994,0.361c0.378,0.117,9.331,3.058,20.251-2.328c11.016-5.399,13.277-16.313,13.372-16.761l0.226-1.147l-1.164-0.189
				C160.01,266.5,149.213,264.793,139.749,269.178 M140.706,271.265c7.041-3.291,15.085-2.911,18.112-2.6
				c-0.861,2.793-3.783,10.034-11.791,13.967c-8.034,3.935-14.915,2.987-17.431,2.459
				C130.523,282.309,133.635,274.542,140.706,271.265"/>
		</g>
		<g>
			<defs>
				<rect id="SVGID_15_" width="436.43" height="600"/>
			</defs>
			<clipPath id="SVGID_16_">
				<use xlink:href="#SVGID_15_"  overflow="visible"/>
			</clipPath>
			<path clip-path="url(#SVGID_16_)" fill="#009BB1" d="M149.359,247.532c-9.661,4.375-13.229,15.74-13.37,16.24l-0.332,1.082
				l1.08,0.322c0.378,0.126,9.301,2.79,20.261-2.471c11.061-5.275,13.408-15.811,13.504-16.255l0.236-1.147l-1.153-0.225
				C169.149,244.996,158.861,243.268,149.359,247.532 M150.297,249.622c7.014-3.172,14.667-2.784,17.604-2.468
				c-0.902,2.727-3.892,9.7-11.887,13.512c-7.969,3.809-14.802,3.092-17.414,2.602C139.709,260.416,143.237,252.8,150.297,249.622"
				/>
		</g>
		<g>
			<defs>
				<rect id="SVGID_17_" width="436.43" height="600"/>
			</defs>
			<clipPath id="SVGID_18_">
				<use xlink:href="#SVGID_17_"  overflow="visible"/>
			</clipPath>
			<path clip-path="url(#SVGID_18_)" fill="#009BB1" d="M161.906,226.703c-9.669,4.252-13.862,15.494-14.033,15.995l-0.425,1.147
				l1.183,0.321c0.378,0.12,9.282,2.483,20.261-2.607c11.11-5.194,13.541-15.353,13.645-15.796l0.256-1.143l-1.154-0.2
				C181.231,224.304,171.456,222.51,161.906,226.703 M162.825,228.798c6.984-3.101,14.251-2.66,17.101-2.338
				c-0.947,2.664-4.003,9.32-11.991,13.012c-7.883,3.676-14.658,3.17-17.384,2.732C151.859,239.338,155.775,231.859,162.825,228.798
				"/>
		</g>
		<g>
			<defs>
				<rect id="SVGID_19_" width="436.43" height="600"/>
			</defs>
			<clipPath id="SVGID_20_">
				<use xlink:href="#SVGID_19_"  overflow="visible"/>
			</clipPath>
			<path clip-path="url(#SVGID_20_)" fill="#009BB1" d="M174.369,206.084c-9.681,4.177-14.488,15.3-14.687,15.795l-0.52,1.213
				l1.295,0.318c0.37,0.118,9.247,2.222,20.262-2.742c11.149-5.07,13.665-14.851,13.771-15.288l0.283-1.143l-1.155-0.252
				C193.231,203.916,183.976,202.013,174.369,206.084 M175.268,208.182c6.965-2.935,13.846-2.488,16.59-2.164
				c-0.985,2.6-4.107,8.946-12.086,12.563c-7.797,3.503-14.525,3.234-17.346,2.86C163.932,218.515,168.246,211.215,175.268,208.182"
				/>
		</g>
		<g>
			<defs>
				<rect id="SVGID_21_" width="436.43" height="600"/>
			</defs>
			<clipPath id="SVGID_22_">
				<use xlink:href="#SVGID_21_"  overflow="visible"/>
			</clipPath>
			<path clip-path="url(#SVGID_22_)" fill="#009BB1" d="M191.621,185.508c-9.709,4.008-15.121,15.056-15.349,15.551l-0.634,1.279
				l1.409,0.313c0.379,0.071,9.228,1.961,20.272-2.92c11.194-4.948,13.797-14.352,13.901-14.782l0.304-1.096l-1.145-0.305
				C210.019,183.479,201.265,181.508,191.621,185.508 M192.492,187.607c6.927-2.862,13.438-2.41,16.087-2.032
				c-1.031,2.532-4.219,8.565-12.179,12.062c-7.77,3.427-14.422,3.296-17.308,2.988
				C180.825,197.641,185.499,190.523,192.492,187.607"/>
		</g>
		<g>
			<defs>
				<rect id="SVGID_23_" width="436.43" height="600"/>
			</defs>
			<clipPath id="SVGID_24_">
				<use xlink:href="#SVGID_23_"  overflow="visible"/>
			</clipPath>
			<path clip-path="url(#SVGID_24_)" fill="#009BB1" d="M210.633,165.638c-9.719,3.886-15.757,14.858-16.012,15.307l-0.738,1.39
				l1.534,0.267c0.368,0.1,9.198,1.698,20.259-3.06c11.251-4.825,13.943-13.896,14.047-14.276l0.32-1.136l-1.129-0.267
				C228.564,163.77,220.324,161.71,210.633,165.638 M211.485,167.737c6.88-2.787,13.021-2.286,15.574-1.903
				c-1.078,2.468-4.332,8.193-12.281,11.612c-7.695,3.302-14.28,3.31-17.242,3.114C199.476,177.515,204.521,170.535,211.485,167.737
				"/>
		</g>
		<g>
			<defs>
				<rect id="SVGID_25_" width="436.43" height="600"/>
			</defs>
			<clipPath id="SVGID_26_">
				<use xlink:href="#SVGID_25_"  overflow="visible"/>
			</clipPath>
			<path clip-path="url(#SVGID_26_)" fill="#009BB1" d="M230.932,146.848c-9.736,3.81-16.381,14.65-16.656,15.112l-0.879,1.456
				l1.676,0.257c0.369,0.062,9.171,1.396,20.258-3.237c11.292-4.699,14.065-13.39,14.18-13.767l0.339-1.091l-1.117-0.315
				C248.411,145.145,240.682,143.038,230.932,146.848 M231.766,148.952c6.823-2.667,12.611-2.163,15.068-1.778
				c-1.131,2.387-4.449,7.864-12.381,11.166c-7.58,3.158-14.118,3.365-17.175,3.237
				C219.453,158.473,224.859,151.675,231.766,148.952"/>
		</g>
		<g>
			<defs>
				<rect id="SVGID_27_" width="436.43" height="600"/>
			</defs>
			<clipPath id="SVGID_28_">
				<use xlink:href="#SVGID_27_"  overflow="visible"/>
			</clipPath>
			<path clip-path="url(#SVGID_28_)" fill="#009BB1" d="M252.052,129.49c-9.765,3.716-17.015,14.447-17.317,14.895l-1.022,1.531
				l1.832,0.244c0.368,0.058,9.14,1.132,20.261-3.374c11.336-4.619,14.195-12.901,14.307-13.261l0.359-1.083l-1.099-0.371
				C269.07,127.998,261.854,125.778,252.052,129.49 M252.868,131.621c6.759-2.546,12.198-2.067,14.547-1.649
				c-1.173,2.289-4.573,7.488-12.464,10.673c-7.524,3.04-13.979,3.415-17.102,3.354C240.253,140.888,245.98,134.226,252.868,131.621
				"/>
		</g>
		<g>
			<defs>
				<rect id="SVGID_29_" width="436.43" height="600"/>
			</defs>
			<clipPath id="SVGID_30_">
				<use xlink:href="#SVGID_29_"  overflow="visible"/>
			</clipPath>
			<path clip-path="url(#SVGID_30_)" fill="#009BB1" d="M273.51,113.968c-9.785,3.588-17.641,14.229-17.977,14.678l-1.166,1.636
				l1.975,0.193c0.368,0.022,9.123,0.827,20.27-3.552c11.378-4.477,14.32-12.399,14.445-12.754l0.375-1.079l-1.078-0.38
				C290.077,112.624,283.355,110.322,273.51,113.968 M274.294,116.092c6.688-2.466,11.802-1.962,14.044-1.523
				c-1.234,2.203-4.686,7.146-12.566,10.225c-7.418,2.919-13.789,3.409-16.987,3.459
				C261.412,125.089,267.449,118.611,274.294,116.092"/>
		</g>
		<g>
			<defs>
				<rect id="SVGID_31_" width="436.43" height="600"/>
			</defs>
			<clipPath id="SVGID_32_">
				<use xlink:href="#SVGID_31_"  overflow="visible"/>
			</clipPath>
			<path clip-path="url(#SVGID_32_)" fill="#009BB1" d="M124.328,247.396c-0.286,0.336-6.986,9.029-7.676,19.504
				c-0.691,10.658,8.025,18.814,8.403,19.156l0.766,0.702l0.777-0.702c0.293-0.257,7.193-6.73,7.723-18.975
				c0.539-12.313-8.006-19.556-8.368-19.869l-0.906-0.761L124.328,247.396z M118.904,268.099c0-0.327,0.01-0.696,0.029-1.022
				c0.512-7.862,4.749-14.746,6.454-17.257c1.977,2.031,6.682,7.745,6.682,16.182c0,0.319-0.011,0.64-0.03,1.007
				c-0.388,8.959-4.533,14.603-6.236,16.548C123.872,281.489,118.904,275.46,118.904,268.099"/>
		</g>
		<g>
			<defs>
				<rect id="SVGID_33_" width="436.43" height="600"/>
			</defs>
			<clipPath id="SVGID_34_">
				<use xlink:href="#SVGID_33_"  overflow="visible"/>
			</clipPath>
			<path clip-path="url(#SVGID_34_)" fill="#009BB1" d="M137.925,223.919c-0.226,0.255-5.677,6.279-8.004,14.914
				c-0.313,1.196-0.56,2.418-0.712,3.741c-1.257,10.343,6.209,18.793,6.532,19.168l0.737,0.825l0.851-0.75
				c0.294-0.254,7.344-6.353,8.773-18.223c1.439-11.998-6.225-19.42-6.548-19.736l-0.843-0.771L137.925,223.919z M131.349,244.871
				c0-0.645,0.038-1.341,0.123-2.037c0.141-1.203,0.36-2.346,0.652-3.422c1.667-6.167,5.121-10.995,6.673-12.96
				c1.636,1.963,5.204,6.992,5.204,14.224c0,0.877-0.057,1.718-0.161,2.659c-1.041,8.637-5.346,14.015-7.153,15.932
				C135.078,257.118,131.349,251.524,131.349,244.871"/>
		</g>
		<g>
			<defs>
				<rect id="SVGID_35_" width="436.43" height="600"/>
			</defs>
			<clipPath id="SVGID_36_">
				<use xlink:href="#SVGID_35_"  overflow="visible"/>
			</clipPath>
			<path clip-path="url(#SVGID_36_)" fill="#009BB1" d="M153.171,201.949c-0.245,0.2-5.962,5.531-8.868,14.104
				c-0.367,1.129-0.67,2.282-0.906,3.615c-1.817,10.02,4.398,18.788,4.664,19.168l0.691,0.956l0.937-0.71
				c0.303-0.248,7.504-6.018,9.824-17.515c2.347-11.677-4.44-19.236-4.732-19.551l-0.767-0.833L153.171,201.949z M145.355,223.35
				c0-1.077,0.084-2.164,0.293-3.251c0.216-1.255,0.482-2.287,0.814-3.293c2.064-6.094,5.726-10.527,7.381-12.309
				c1.306,1.843,3.872,6.271,3.872,12.304c0,1.341-0.135,2.798-0.445,4.32c-1.667,8.312-6.124,13.396-8.054,15.297
				C147.947,234.263,145.355,229.187,145.355,223.35"/>
		</g>
		<g>
			<defs>
				<rect id="SVGID_37_" width="436.43" height="600"/>
			</defs>
			<clipPath id="SVGID_38_">
				<use xlink:href="#SVGID_37_"  overflow="visible"/>
			</clipPath>
			<path clip-path="url(#SVGID_38_)" fill="#009BB1" d="M169.931,181.385c-0.255,0.193-6.235,4.83-9.738,13.339
				c-0.416,1.012-0.767,2.153-1.099,3.486c-2.346,9.653,2.586,18.784,2.793,19.166l0.624,1.138l1.043-0.761
				c0.311-0.243,7.656-5.638,10.863-16.761c3.255-11.352-2.641-19.093-2.897-19.412l-0.69-0.889L169.931,181.385z M160.761,203.6
				c0-1.583,0.161-3.229,0.558-4.828c0.294-1.255,0.617-2.276,0.984-3.167c2.461-5.971,6.312-9.968,8.072-11.609
				c0.976,1.7,2.717,5.328,2.717,10.275c0,1.845-0.245,3.88-0.872,6.087c-2.28,7.935-6.868,12.766-8.932,14.66
				C162.38,212.933,160.761,208.561,160.761,203.6"/>
		</g>
		<g>
			<defs>
				<rect id="SVGID_39_" width="436.43" height="600"/>
			</defs>
			<clipPath id="SVGID_40_">
				<use xlink:href="#SVGID_39_"  overflow="visible"/>
			</clipPath>
			<path clip-path="url(#SVGID_40_)" fill="#009BB1" d="M188.082,162.246c-0.266,0.16-6.483,4.11-10.609,12.595
				c-0.462,0.953-0.88,1.981-1.286,3.312c-2.896,9.331,0.766,18.729,0.927,19.16l0.52,1.278l1.174-0.764
				c0.311-0.198,7.798-5.264,11.886-16.054c4.163-10.983-0.833-18.858-1.05-19.179l-0.617-0.948L188.082,162.246z M177.368,185.821
				c0-2.224,0.266-4.627,0.995-6.975c0.38-1.207,0.746-2.163,1.153-3.038c2.888-5.856,6.929-9.468,8.774-10.923
				c0.701,1.457,1.77,4.311,1.77,8.178c0,2.298-0.389,4.969-1.506,7.933c-2.856,7.556-7.588,12.138-9.803,13.98
				C178.202,193.134,177.368,189.76,177.368,185.821"/>
		</g>
		<g>
			<defs>
				<rect id="SVGID_41_" width="436.43" height="600"/>
			</defs>
			<clipPath id="SVGID_42_">
				<use xlink:href="#SVGID_41_"  overflow="visible"/>
			</clipPath>
			<path clip-path="url(#SVGID_42_)" fill="#009BB1" d="M207.51,144.505c-0.275,0.128-6.719,3.424-11.489,11.805
				c-0.511,0.892-0.984,1.909-1.476,3.181c-3.443,9.007-1.021,18.715-0.917,19.103l0.378,1.513l1.316-0.816
				c0.322-0.19,7.948-4.884,12.908-15.3c5.063-10.656,0.974-18.662,0.794-18.983l-0.52-1.009L207.51,144.505z M194.999,170.271
				c0-3.039,0.389-6.592,1.675-9.957c0.454-1.149,0.871-2.091,1.335-2.865c3.294-5.825,7.504-9.008,9.454-10.274
				c0.427,1.202,1.014,3.244,1.014,6.095c0,2.722-0.541,6.032-2.301,9.716c-3.445,7.237-8.327,11.601-10.666,13.385
				C195.274,174.973,194.999,172.813,194.999,170.271"/>
		</g>
		<g>
			<defs>
				<rect id="SVGID_43_" width="436.43" height="600"/>
			</defs>
			<clipPath id="SVGID_44_">
				<use xlink:href="#SVGID_43_"  overflow="visible"/>
			</clipPath>
			<path clip-path="url(#SVGID_44_)" fill="#009BB1" d="M228.133,128.129c-0.285,0.123-6.927,2.728-12.37,10.993
				c-0.568,0.879-1.109,1.891-1.667,3.093c-3.982,8.638-2.809,18.612-2.754,19.048l0.2,1.655l1.475-0.785
				c0.334-0.177,8.092-4.496,13.939-14.582c5.954-10.281,2.776-18.442,2.642-18.785l-0.425-1.022L228.133,128.129z M213.435,157.331
				c0-3.559,0.435-9.2,2.734-14.162c0.511-1.11,1.003-2.02,1.506-2.784c3.728-5.66,8.106-8.507,10.134-9.585
				c0.217,0.913,0.444,2.278,0.444,4.058c0,2.989-0.669,7.051-3.272,11.552c-4.004,6.916-9.021,10.977-11.507,12.698
				C213.454,158.597,213.435,158.023,213.435,157.331"/>
		</g>
		<g>
			<defs>
				<rect id="SVGID_45_" width="436.43" height="600"/>
			</defs>
			<clipPath id="SVGID_46_">
				<use xlink:href="#SVGID_45_"  overflow="visible"/>
			</clipPath>
			<path clip-path="url(#SVGID_46_)" fill="#009BB1" d="M249.85,113.109c-0.283,0.099-7.127,2.035-13.238,10.22
				c-0.644,0.862-1.248,1.818-1.856,2.905c-4.542,8.311-4.586,18.595-4.586,19.037l0.006,1.837l1.642-0.82
				c0.338-0.151,8.242-4.131,14.949-13.843c6.851-9.903,4.592-18.212,4.485-18.536l-0.31-1.082L249.85,113.109z M236.762,127.361
				c0.549-1.015,1.1-1.896,1.676-2.662c4.166-5.583,8.725-8.032,10.828-8.942c0.062,0.56,0.121,1.196,0.121,2.021
				c0,3.05-0.746,7.941-4.496,13.376c-4.555,6.563-9.709,10.374-12.339,12.077C232.797,139.874,233.646,133.019,236.762,127.361"/>
		</g>
		<g>
			<defs>
				<rect id="SVGID_47_" width="436.43" height="600"/>
			</defs>
			<clipPath id="SVGID_48_">
				<use xlink:href="#SVGID_47_"  overflow="visible"/>
			</clipPath>
			<path clip-path="url(#SVGID_48_)" fill="#009BB1" d="M272.477,99.438c-0.293,0.059-7.307,1.342-14.115,9.398
				c-6.782,7.998-8.37,21.222-8.438,21.773l-0.227,1.977l1.816-0.78c0.342-0.178,8.393-3.799,15.979-13.138
				c7.719-9.553,6.365-17.958,6.31-18.308l-0.198-1.114L272.477,99.438z M260.098,110.316c4.617-5.458,9.351-7.553,11.525-8.277
				c0.013,0.062,0.013,0.087,0.013,0.15c0,2.64-0.684,8.556-5.926,15.026c-5.069,6.279-10.399,9.838-13.163,11.431
				C253.282,124.597,255.355,115.908,260.098,110.316"/>
		</g>
		<g>
			<defs>
				<rect id="SVGID_49_" width="436.43" height="600"/>
			</defs>
			<clipPath id="SVGID_50_">
				<use xlink:href="#SVGID_49_"  overflow="visible"/>
			</clipPath>
			<path clip-path="url(#SVGID_50_)" fill="#009BB1" d="M55.812,212.615c0,55.167,29.866,108.279,77.95,138.576l1.988,1.223
				l1.429-1.852c0.406-0.533,0.569-1.021,0.569-1.486c0-1.184-1.014-2.127-1.582-2.65l-2.783-2.668
				c-9.907-11.268-12.565-21.934-12.565-30.141c0-9.082,3.243-15.117,3.511-15.582l0.887-1.623l-1.221-1.343
				c-20.318-22.663-31.048-51.165-31.048-82.454c0-68.812,55.985-124.799,124.804-124.799c19.135,0,37.493,4.197,54.563,12.51
				l1.767,0.855l25.092-28.612l-2.784-1.549c-23.912-13.323-51.109-20.36-78.638-20.36C128.455,50.66,55.812,123.312,55.812,212.615
				 M60.96,212.615c0-86.454,70.332-156.791,156.791-156.791c25.576,0,50.825,6.326,73.272,18.223
				c-3.28,3.746-16.265,18.557-18.265,20.822c-17.261-8.067-35.753-12.221-55.009-12.221c-71.659,0-129.962,58.304-129.962,129.967
				c0,31.985,10.845,61.129,31.277,84.549c-1.174,2.709-3.265,8.664-3.265,16.539c0,6.539,1.514,14.342,6.103,22.682
				C83.965,306.158,60.96,260.216,60.96,212.615"/>
		</g>
		<g>
			<defs>
				<rect id="SVGID_51_" width="436.43" height="600"/>
			</defs>
			<clipPath id="SVGID_52_">
				<use xlink:href="#SVGID_51_"  overflow="visible"/>
			</clipPath>
			<path clip-path="url(#SVGID_52_)" fill="#009BB1" d="M274.557,95.694c-17.779-8.661-36.887-13.046-56.806-13.046
				c-71.659,0-129.963,58.304-129.963,129.967c0,32.564,11.197,62.268,32.375,85.885l2.225,2.477l9.879-14.924l-0.526-0.628
				c-0.884-0.107-1.617-0.234-2.145-0.335c0.136-0.425,0.328-0.939,0.566-1.564c-0.777-0.899-1.556-1.844-2.295-2.794
				c-0.798,1.27-1.545,2.218-2.063,2.825c-1.932-2.069-6.9-8.096-6.9-15.459c0-0.249,0.01-0.451,0.021-0.7
				c-9.245-16.257-13.932-34.601-13.932-54.783c0-62.196,50.582-112.767,112.758-112.767c15.265,0,29.979,2.964,43.827,8.853
				c1.482-1.546,2.947-2.75,4.304-3.684c-15.155-6.819-31.313-10.315-48.131-10.315c-65.015,0-117.915,52.909-117.915,117.913
				c0,28.186,8.799,52.982,26.033,73.76c-1.003,1.523-2.404,3.625-4.012,6.066c-18.871-22.247-28.91-49.731-28.91-79.826
				c0-68.812,55.984-124.799,124.804-124.799c18.282,0,35.835,3.878,52.255,11.462c-0.684,1.493-1.357,2.953-2.031,4.413
				c1.508-0.858,2.781-1.368,3.648-1.652c0.014,0.062,0.014,0.087,0.014,0.15c0,1.912-0.373,5.592-2.604,9.947l0.588,0.309
				l7.212-15.65L274.557,95.694z"/>
		</g>
		<g>
			<defs>
				<rect id="SVGID_53_" width="436.43" height="600"/>
			</defs>
			<clipPath id="SVGID_54_">
				<use xlink:href="#SVGID_53_"  overflow="visible"/>
			</clipPath>
			<path clip-path="url(#SVGID_54_)" fill="#009BB1" d="M273.406,70.221L260.98,85.939c1.138,0.387,2.27,0.801,3.399,1.212
				l12.334-15.597C275.615,71.093,274.511,70.649,273.406,70.221"/>
		</g>
		<g>
			<defs>
				<rect id="SVGID_55_" width="436.43" height="600"/>
			</defs>
			<clipPath id="SVGID_56_">
				<use xlink:href="#SVGID_55_"  overflow="visible"/>
			</clipPath>
			<path clip-path="url(#SVGID_56_)" fill="#009BB1" d="M249.081,62.979l-7.238,17.947c1.144,0.202,2.279,0.425,3.415,0.674
				l7.217-17.874C251.348,63.467,250.215,63.221,249.081,62.979"/>
		</g>
		<g>
			<defs>
				<rect id="SVGID_57_" width="436.43" height="600"/>
			</defs>
			<clipPath id="SVGID_58_">
				<use xlink:href="#SVGID_57_"  overflow="visible"/>
			</clipPath>
			<path clip-path="url(#SVGID_58_)" fill="#009BB1" d="M220.161,59.762l-1.778,19.005c1.145,0.002,2.286,0.031,3.432,0.059
				l1.776-18.977C222.448,59.795,221.305,59.767,220.161,59.762"/>
		</g>
		<g>
			<defs>
				<rect id="SVGID_59_" width="436.43" height="600"/>
			</defs>
			<clipPath id="SVGID_60_">
				<use xlink:href="#SVGID_59_"  overflow="visible"/>
			</clipPath>
			<path clip-path="url(#SVGID_60_)" fill="#009BB1" d="M191.979,61.891l3.613,18.712c1.124-0.186,2.252-0.369,3.385-0.524
				l-3.618-18.711C194.228,61.526,193.102,61.7,191.979,61.891"/>
		</g>
		<g>
			<defs>
				<rect id="SVGID_61_" width="436.43" height="600"/>
			</defs>
			<clipPath id="SVGID_62_">
				<use xlink:href="#SVGID_61_"  overflow="visible"/>
			</clipPath>
			<path clip-path="url(#SVGID_62_)" fill="#009BB1" d="M164.63,69.244l8.55,17.147c1.085-0.382,2.177-0.754,3.273-1.107
				l-8.576-17.205C166.789,68.459,165.706,68.842,164.63,69.244"/>
		</g>
		<g>
			<defs>
				<rect id="SVGID_63_" width="436.43" height="600"/>
			</defs>
			<clipPath id="SVGID_64_">
				<use xlink:href="#SVGID_63_"  overflow="visible"/>
			</clipPath>
			<path clip-path="url(#SVGID_64_)" fill="#009BB1" d="M138.688,81.791l12.765,14.566c1.011-0.576,2.032-1.142,3.06-1.682
				l-12.832-14.66C140.676,80.588,139.681,81.184,138.688,81.791"/>
		</g>
		<g>
			<defs>
				<rect id="SVGID_65_" width="436.43" height="600"/>
			</defs>
			<clipPath id="SVGID_66_">
				<use xlink:href="#SVGID_65_"  overflow="visible"/>
			</clipPath>
			<path clip-path="url(#SVGID_66_)" fill="#009BB1" d="M115.119,99.375l16.111,11.184c0.905-0.769,1.82-1.524,2.743-2.253
				l-16.217-11.277C116.869,97.806,115.989,98.583,115.119,99.375"/>
		</g>
		<g>
			<defs>
				<rect id="SVGID_67_" width="436.43" height="600"/>
			</defs>
			<clipPath id="SVGID_68_">
				<use xlink:href="#SVGID_67_"  overflow="visible"/>
			</clipPath>
			<path clip-path="url(#SVGID_68_)" fill="#009BB1" d="M95.068,121.464l18.51,7.197c0.755-0.918,1.523-1.863,2.303-2.758
				l-18.652-7.272C96.498,119.562,95.778,120.512,95.068,121.464"/>
		</g>
		<g>
			<defs>
				<rect id="SVGID_69_" width="436.43" height="600"/>
			</defs>
			<clipPath id="SVGID_70_">
				<use xlink:href="#SVGID_69_"  overflow="visible"/>
			</clipPath>
			<path clip-path="url(#SVGID_70_)" fill="#009BB1" d="M79.582,147.173l19.919,2.789c0.574-1.08,1.161-2.156,1.762-3.23
				l-20.096-2.795C80.625,145.014,80.097,146.092,79.582,147.173"/>
		</g>
		<g>
			<defs>
				<rect id="SVGID_71_" width="436.43" height="600"/>
			</defs>
			<clipPath id="SVGID_72_">
				<use xlink:href="#SVGID_71_"  overflow="visible"/>
			</clipPath>
			<path clip-path="url(#SVGID_72_)" fill="#009BB1" d="M69.441,175.41l20.308-1.96c0.366-1.201,0.743-2.356,1.14-3.553
				l-20.515,1.966C70.049,173.014,69.738,174.211,69.441,175.41"/>
		</g>
		<g>
			<defs>
				<rect id="SVGID_73_" width="436.43" height="600"/>
			</defs>
			<clipPath id="SVGID_74_">
				<use xlink:href="#SVGID_73_"  overflow="visible"/>
			</clipPath>
			<path clip-path="url(#SVGID_74_)" fill="#009BB1" d="M65.042,204.937l19.645-6.802c0.138-1.269,0.293-2.537,0.466-3.803
				l-19.882,6.917C65.183,202.462,65.104,203.722,65.042,204.937"/>
		</g>
		<g>
			<defs>
				<rect id="SVGID_75_" width="436.43" height="600"/>
			</defs>
			<clipPath id="SVGID_76_">
				<use xlink:href="#SVGID_75_"  overflow="visible"/>
			</clipPath>
			<path clip-path="url(#SVGID_76_)" fill="#009BB1" d="M66.564,234.773l17.747-11.627c-0.099-1.325-0.188-2.65-0.249-3.934
				l-18.026,11.816C66.196,232.292,66.372,233.557,66.564,234.773"/>
		</g>
		<g>
			<defs>
				<rect id="SVGID_77_" width="436.43" height="600"/>
			</defs>
			<clipPath id="SVGID_78_">
				<use xlink:href="#SVGID_77_"  overflow="visible"/>
			</clipPath>
			<path clip-path="url(#SVGID_78_)" fill="#009BB1" d="M74.13,263.974l14.408-15.869c-0.357-1.33-0.679-2.663-0.994-3.997
				l-14.709,16.217C73.251,261.555,73.683,262.764,74.13,263.974"/>
		</g>
		<g>
			<defs>
				<rect id="SVGID_79_" width="436.43" height="600"/>
			</defs>
			<clipPath id="SVGID_80_">
				<use xlink:href="#SVGID_79_"  overflow="visible"/>
			</clipPath>
			<path clip-path="url(#SVGID_80_)" fill="#009BB1" d="M87.684,291.897l10.191-19.392c-0.637-1.245-1.273-2.511-1.867-3.8
				l-10.379,19.751C86.299,289.61,86.982,290.754,87.684,291.897"/>
		</g>
		<g>
			<defs>
				<rect id="SVGID_81_" width="436.43" height="600"/>
			</defs>
			<clipPath id="SVGID_82_">
				<use xlink:href="#SVGID_81_"  overflow="visible"/>
			</clipPath>
			<path clip-path="url(#SVGID_82_)" fill="#009BB1" d="M105.045,315.139l5.447-22.468c-0.902-1.17-1.786-2.364-2.646-3.572
				l-5.555,22.915C103.195,313.045,104.114,314.118,105.045,315.139"/>
		</g>
		<g>
			<defs>
				<rect id="SVGID_83_" width="436.43" height="600"/>
			</defs>
			<clipPath id="SVGID_84_">
				<use xlink:href="#SVGID_83_"  overflow="visible"/>
			</clipPath>
			<path clip-path="url(#SVGID_84_)" fill="#009BB1" d="M270.855,113.555c0.473,0.305,0.938,0.614,1.396,0.93
				c0.417-0.189,0.829-0.381,1.258-0.517c0.501-0.188,0.993-0.37,1.477-0.506c-1.053-0.697-2.037-1.488-2.979-2.288
				C271.682,111.941,271.295,112.731,270.855,113.555"/>
		</g>
		<g>
			<defs>
				<rect id="SVGID_85_" width="436.43" height="600"/>
			</defs>
			<clipPath id="SVGID_86_">
				<use xlink:href="#SVGID_85_"  overflow="visible"/>
			</clipPath>
			<polygon clip-path="url(#SVGID_86_)" fill="#009BB1" points="33.397,556.393 33.397,447.622 43.271,447.622 87.324,497.77 
				131.208,447.622 141.25,447.622 141.25,556.393 131.543,556.393 131.543,460.372 87.324,510.986 42.85,460.372 42.85,556.393 			
				"/>
		</g>
		<g>
			<defs>
				<rect id="SVGID_87_" width="436.43" height="600"/>
			</defs>
			<clipPath id="SVGID_88_">
				<use xlink:href="#SVGID_87_"  overflow="visible"/>
			</clipPath>
			<path clip-path="url(#SVGID_88_)" fill="#009BB1" d="M186.213,447.621h28.693c12.826,0,22.518,2.463,29.072,7.387
				c6.554,4.924,9.832,12.18,9.832,21.771c0,8.812-3.151,15.848-9.453,21.108c-6.301,5.261-14.738,7.892-25.316,7.892h-23.375
				v50.614h-9.452L186.213,447.621L186.213,447.621z M195.665,454.93v43.308h17.976c10.181,0,17.691-1.775,22.532-5.326
				c4.838-3.551,7.259-9.084,7.259-16.601c0-6.997-2.379-12.311-7.133-15.938c-4.755-3.627-11.718-5.441-20.887-5.441
				L195.665,454.93L195.665,454.93z"/>
		</g>
		<g>
			<defs>
				<rect id="SVGID_89_" width="436.43" height="600"/>
			</defs>
			<clipPath id="SVGID_90_">
				<use xlink:href="#SVGID_89_"  overflow="visible"/>
			</clipPath>
			<path clip-path="url(#SVGID_90_)" fill="#009BB1" d="M337.186,557.637c-16.296-2.334-29.371-8.643-39.232-18.934
				c-9.86-10.287-14.792-22.662-14.792-37.125c0-7.256,1.604-14.316,4.805-21.187c3.201-6.866,7.696-12.893,13.483-18.075
				c5.955-5.339,12.654-9.408,20.101-12.207c7.444-2.8,15.296-4.199,23.558-4.199c8.368,0,16.306,1.399,23.806,4.199
				c7.5,2.799,14.174,6.868,20.019,12.207c6.011,5.44,10.561,11.52,13.651,18.229c3.091,6.715,4.635,13.854,4.635,21.42
				c0,14.566-5.043,26.98-15.128,37.242c-10.086,10.264-23.39,16.406-39.906,18.428c7.079,4.197,13.623,7.371,19.634,9.523
				c6.01,2.149,11.32,3.227,15.926,3.227c2.473,0,4.817-0.323,7.037-0.973c2.219-0.649,4.424-1.646,6.616-2.992l1.688,1.633
				l-10.375,11.273c-8.536-0.26-17.368-2.166-26.496-5.715C357.082,570.062,347.406,564.736,337.186,557.637 M293.541,501.967
				c0,6.377,1.307,12.558,3.919,18.543c2.609,5.988,6.305,11.263,11.077,15.822c4.719,4.459,10.32,7.932,16.811,10.42
				c6.487,2.486,13.129,3.73,19.926,3.73c6.966,0,13.535-1.205,19.714-3.615c6.18-2.41,11.741-5.92,16.686-10.535
				c4.887-4.561,8.605-9.795,11.163-15.705c2.555-5.908,3.831-12.129,3.831-18.66c0-6.528-1.264-12.697-3.792-18.504
				c-2.526-5.805-6.261-11.014-11.202-15.627c-4.889-4.613-10.479-8.15-16.77-10.613c-6.291-2.461-12.834-3.692-19.63-3.692
				c-6.797,0-13.342,1.231-19.631,3.692c-6.291,2.463-11.937,6-16.937,10.613c-4.887,4.51-8.637,9.707-11.246,15.588
				C294.848,489.309,293.541,495.488,293.541,501.967"/>
		</g>
		<g>
			<defs>
				<rect id="SVGID_91_" width="436.43" height="600"/>
			</defs>
			<clipPath id="SVGID_92_">
				<use xlink:href="#SVGID_91_"  overflow="visible"/>
			</clipPath>
			<path clip-path="url(#SVGID_92_)" fill="#090909" d="M424.463,595h-415V5.715h415V595z M421.338,9.088H13.235v582.521h408.103
				V9.088L421.338,9.088z"/>
		</g>
		<g>
			<defs>
				<rect id="SVGID_93_" width="436.43" height="600"/>
			</defs>
			<clipPath id="SVGID_94_">
				<use xlink:href="#SVGID_93_"  overflow="visible"/>
			</clipPath>
			<path clip-path="url(#SVGID_94_)" fill="#090909" d="M408.385,403.588h-382V22.137l382,0.001V403.588z M405.404,25.151H29.357
				v375.486h376.047V25.151z"/>
		</g>
	</g>
</g>
</svg>
